<?xml version="1.0" encoding="UTF-8"?>
<svg xmlns="http://www.w3.org/2000/svg" xmlns:xlink="http://www.w3.org/1999/xlink" viewBox="0 0 672.07 235.53">
<defs>
<g>
<g id="stockage-types-glyph-0-0">
<path d="M 0.75 0 L 6.26 0 L 6.26 -1.40 L 2.43 -1.40 L 2.43 -3.46 L 5.96 -3.46 L 5.96 -4.84 L 2.43 -4.84 L 2.43 -6.84 L 6.26 -6.84 L 6.26 -8.23 L 0.75 -8.23 Z M 0.75 0 "/>
</g>
<g id="stockage-types-glyph-0-1">
<path d="M 2.37 -3.57 C 2.37 -4.39 2.85 -4.87 3.56 -4.87 C 4.26 -4.87 4.68 -4.40 4.68 -3.64 L 4.68 0 L 6.34 0 L 6.34 -3.93 C 6.34 -5.37 5.5 -6.26 4.21 -6.26 C 3.26 -6.26 2.64 -5.76 2.29 -4.90 L 2.26 -6.18 L 0.70 -6.18 L 0.70 0 L 2.37 0 Z M 2.37 -3.57 "/>
</g>
<g id="stockage-types-glyph-0-2">
<path d="M 4.17 0.10 C 5.59 0.10 6.68 -1.01 6.68 -3.07 C 6.68 -5.18 5.54 -6.26 4.18 -6.26 C 3.12 -6.26 2.64 -5.64 2.42 -5.14 L 2.37 -5.14 L 2.37 -8.23 L 0.70 -8.23 L 0.70 0 L 2.34 0 L 2.34 -0.98 L 2.42 -0.98 C 2.65 -0.5 3.15 0.10 4.17 0.10 Z M 3.65 -1.23 C 2.81 -1.23 2.32 -1.96 2.32 -3.09 C 2.32 -4.20 2.81 -4.93 3.65 -4.93 C 4.53 -4.93 4.98 -4.17 4.98 -3.09 C 4.98 -2 4.53 -1.23 3.65 -1.23 Z M 3.65 -1.23 "/>
</g>
<g id="stockage-types-glyph-0-3">
<path d="M 2.37 -8.23 L 0.70 -8.23 L 0.70 0 L 2.37 0 Z M 2.37 -8.23 "/>
</g>
<g id="stockage-types-glyph-0-4">
<path d="M 3.46 0.12 C 5.32 0.12 6.5 -1.15 6.5 -3.06 C 6.5 -4.98 5.32 -6.26 3.46 -6.26 C 1.60 -6.26 0.45 -4.98 0.45 -3.06 C 0.45 -1.15 1.60 0.12 3.46 0.12 Z M 3.46 -1.18 C 2.59 -1.18 2.14 -1.98 2.14 -3.06 C 2.14 -4.17 2.59 -4.95 3.46 -4.95 C 4.35 -4.95 4.81 -4.15 4.81 -3.06 C 4.81 -1.98 4.35 -1.18 3.46 -1.18 Z M 3.46 -1.18 "/>
</g>
<g id="stockage-types-glyph-0-5">
<path d="M 3.46 0.12 C 4.95 0.12 6 -0.68 6.23 -1.98 L 4.68 -2.26 C 4.56 -1.59 4.12 -1.18 3.48 -1.18 C 2.60 -1.18 2.14 -1.96 2.14 -3.06 C 2.14 -4.18 2.60 -4.95 3.48 -4.95 C 4.12 -4.95 4.54 -4.56 4.67 -3.92 L 6.21 -4.20 C 5.98 -5.46 4.93 -6.26 3.46 -6.26 C 1.60 -6.26 0.45 -4.98 0.45 -3.06 C 0.45 -1.15 1.60 0.12 3.46 0.12 Z M 3.46 0.12 "/>
</g>
<g id="stockage-types-glyph-0-6">
<path d="M 4.15 -6.18 L 2.85 -6.18 L 2.85 -6.60 C 2.85 -7.03 3.04 -7.29 3.54 -7.29 C 3.76 -7.29 3.95 -7.25 4.09 -7.20 L 4.39 -8.45 C 4.18 -8.51 3.73 -8.62 3.20 -8.62 C 2.06 -8.62 1.20 -7.96 1.20 -6.65 L 1.20 -6.18 L 0.10 -6.18 L 0.10 -4.92 L 1.20 -4.92 L 1.20 0 L 2.85 0 L 2.85 -4.92 L 4.15 -4.92 Z M 4.15 -6.18 "/>
</g>
<g id="stockage-types-glyph-0-7">
<path d="M 0.70 0 L 2.37 0 L 2.37 -6.18 L 0.70 -6.18 Z M 1.53 -6.98 C 2.03 -6.98 2.45 -7.37 2.45 -7.84 C 2.45 -8.31 2.03 -8.68 1.53 -8.68 C 1.03 -8.68 0.62 -8.31 0.62 -7.84 C 0.62 -7.37 1.03 -6.98 1.53 -6.98 Z M 1.53 -6.98 "/>
</g>
<g id="stockage-types-glyph-0-8">
<path d="M 2.37 -3.57 C 2.37 -4.39 2.85 -4.87 3.56 -4.87 C 4.26 -4.87 4.68 -4.40 4.68 -3.64 L 4.68 0 L 6.34 0 L 6.34 -3.93 C 6.34 -5.37 5.5 -6.26 4.21 -6.26 C 3.29 -6.26 2.68 -5.81 2.32 -5 L 2.32 -8.23 L 0.70 -8.23 L 0.70 0 L 2.37 0 Z M 2.37 -3.57 "/>
</g>
<g id="stockage-types-glyph-0-9">
<path d="M 3.5 0.12 C 4.93 0.12 5.92 -0.54 6.23 -1.57 L 4.71 -1.85 C 4.54 -1.39 4.10 -1.12 3.53 -1.12 C 2.68 -1.12 2.12 -1.64 2.09 -2.65 L 6.32 -2.65 L 6.32 -3.12 C 6.32 -5.23 5.03 -6.26 3.42 -6.26 C 1.60 -6.26 0.45 -4.96 0.45 -3.06 C 0.45 -1.10 1.60 0.12 3.5 0.12 Z M 2.10 -3.70 C 2.17 -4.46 2.64 -5.01 3.43 -5.01 C 4.20 -5.01 4.64 -4.51 4.71 -3.70 Z M 2.10 -3.70 "/>
</g>
<g id="stockage-types-glyph-0-10">
<path d="M 0.70 0 L 2.37 0 L 2.37 -3.51 C 2.37 -4.28 2.92 -4.81 3.68 -4.81 C 3.93 -4.81 4.26 -4.78 4.40 -4.73 L 4.40 -6.21 C 4.26 -6.25 4.04 -6.26 3.87 -6.26 C 3.17 -6.26 2.60 -5.87 2.37 -5.10 L 2.31 -5.10 L 2.31 -6.18 L 0.70 -6.18 Z M 0.70 0 "/>
</g>
<g id="stockage-types-glyph-0-11">
<path d="M 3.15 0.12 C 4.78 0.12 5.92 -0.68 5.92 -1.90 C 5.92 -2.78 5.35 -3.32 4.15 -3.57 L 3.04 -3.79 C 2.46 -3.92 2.25 -4.14 2.25 -4.45 C 2.25 -4.81 2.67 -5.07 3.21 -5.07 C 3.81 -5.07 4.17 -4.78 4.29 -4.35 L 5.76 -4.60 C 5.53 -5.62 4.65 -6.26 3.18 -6.26 C 1.62 -6.26 0.59 -5.53 0.59 -4.34 C 0.59 -3.42 1.17 -2.82 2.37 -2.59 L 3.43 -2.37 C 3.98 -2.25 4.23 -2.06 4.23 -1.73 C 4.23 -1.35 3.84 -1.09 3.21 -1.09 C 2.53 -1.09 2.14 -1.37 1.96 -1.95 L 0.43 -1.68 C 0.64 -0.54 1.67 0.12 3.15 0.12 Z M 3.15 0.12 "/>
</g>
<g id="stockage-types-glyph-0-12">
<path d="M 0.70 -6.18 L 0.70 0.29 C 0.70 0.76 0.5 1 -0.06 1 L -0.28 1 L -0.28 2.31 L 0.06 2.31 C 1.5 2.31 2.37 1.73 2.37 0.31 L 2.37 -6.18 Z M 1.53 -6.98 C 2.03 -6.98 2.45 -7.37 2.45 -7.84 C 2.45 -8.31 2.03 -8.68 1.53 -8.68 C 1.04 -8.68 0.62 -8.31 0.62 -7.84 C 0.62 -7.37 1.04 -6.98 1.53 -6.98 Z M 1.53 -6.98 "/>
</g>
<g id="stockage-types-glyph-0-13">
<path d="M 3.78 -6.18 L 2.62 -6.18 L 2.62 -7.65 L 0.96 -7.65 L 0.96 -6.18 L 0.10 -6.18 L 0.10 -4.92 L 0.96 -4.92 L 0.96 -1.67 C 0.96 -0.53 1.64 0.09 2.87 0.09 C 3.20 0.09 3.57 0.04 3.95 -0.06 L 3.71 -1.31 C 3.59 -1.26 3.31 -1.23 3.18 -1.23 C 2.78 -1.23 2.62 -1.42 2.62 -1.81 L 2.62 -4.92 L 3.78 -4.92 Z M 3.78 -6.18 "/>
</g>
<g id="stockage-types-glyph-1-0">
<path d="M 0.21 0 L 1.06 0 L 1.65 -1.73 L 4.20 -1.73 L 4.82 0 L 5.65 0 L 3.37 -6.18 L 2.46 -6.18 Z M 1.89 -2.42 L 2.32 -3.67 C 2.46 -4.06 2.65 -4.64 2.92 -5.56 C 3.17 -4.65 3.35 -4.09 3.51 -3.67 L 3.96 -2.42 Z M 1.89 -2.42 "/>
</g>
<g id="stockage-types-glyph-1-1">
<path d="M 0.65 0 L 1.40 0 L 1.40 -2.92 C 1.40 -3.67 1.90 -4.04 2.43 -4.04 C 2.96 -4.04 3.35 -3.70 3.35 -3.18 L 3.35 0 L 4.10 0 L 4.10 -3.03 C 4.10 -3.62 4.48 -4.04 5.10 -4.04 C 5.60 -4.04 6.04 -3.78 6.04 -3.10 L 6.04 0 L 6.79 0 L 6.79 -3.14 C 6.79 -4.20 6.14 -4.73 5.34 -4.73 C 4.65 -4.73 4.09 -4.37 3.87 -3.78 C 3.70 -4.35 3.29 -4.73 2.68 -4.73 C 2.14 -4.73 1.60 -4.42 1.39 -3.79 L 1.39 -4.64 L 0.65 -4.64 Z M 0.65 0 "/>
</g>
<g id="stockage-types-glyph-1-2">
<path d="M 1.95 0.10 C 2.75 0.10 3.17 -0.29 3.34 -0.62 L 3.39 -0.62 L 3.39 0 L 4.12 0 L 4.12 -3.06 C 4.12 -4.51 3 -4.70 2.37 -4.70 C 1.65 -4.70 0.85 -4.45 0.5 -3.60 L 1.21 -3.35 C 1.37 -3.68 1.73 -4.04 2.40 -4.04 C 3.04 -4.04 3.37 -3.71 3.37 -3.14 L 3.37 -3.10 C 3.37 -2.76 3.01 -2.79 2.18 -2.68 C 1.32 -2.57 0.37 -2.39 0.37 -1.32 C 0.37 -0.40 1.07 0.10 1.95 0.10 Z M 2.09 -0.54 C 1.53 -0.54 1.12 -0.79 1.12 -1.28 C 1.12 -1.81 1.60 -1.98 2.15 -2.06 C 2.43 -2.09 3.25 -2.17 3.37 -2.32 L 3.37 -1.67 C 3.37 -1.10 2.90 -0.54 2.09 -0.54 Z M 2.09 -0.54 "/>
</g>
<g id="stockage-types-glyph-1-3">
<path d="M 0.53 0 L 4.17 0 L 4.17 -0.68 L 1.56 -0.68 L 1.56 -0.73 L 4.09 -4.04 L 4.09 -4.64 L 0.60 -4.64 L 0.60 -3.95 L 3.12 -3.95 L 3.12 -3.90 L 0.53 -0.56 Z M 0.53 0 "/>
</g>
<g id="stockage-types-glyph-1-4">
<path d="M 2.54 0.09 C 3.81 0.09 4.67 -0.85 4.67 -2.29 C 4.67 -3.75 3.81 -4.70 2.54 -4.70 C 1.28 -4.70 0.43 -3.75 0.43 -2.29 C 0.43 -0.85 1.28 0.09 2.54 0.09 Z M 2.54 -0.56 C 1.62 -0.56 1.18 -1.37 1.18 -2.29 C 1.18 -3.21 1.62 -4.03 2.54 -4.03 C 3.48 -4.03 3.92 -3.21 3.92 -2.29 C 3.92 -1.37 3.48 -0.56 2.54 -0.56 Z M 2.54 -0.56 "/>
</g>
<g id="stockage-types-glyph-1-5">
<path d="M 1.40 -2.78 C 1.40 -3.57 1.90 -4.03 2.57 -4.03 C 3.21 -4.03 3.62 -3.60 3.62 -2.89 L 3.62 0 L 4.37 0 L 4.37 -2.95 C 4.37 -4.12 3.73 -4.70 2.79 -4.70 C 2.17 -4.70 1.67 -4.43 1.37 -3.78 L 1.37 -4.64 L 0.65 -4.64 L 0.65 0 L 1.40 0 Z M 1.40 -2.78 "/>
</g>
<g id="stockage-types-glyph-1-6">
<path d="M 0.75 0 L 4.56 0 L 4.56 -0.70 L 1.53 -0.70 L 1.53 -2.78 L 4.31 -2.78 L 4.31 -3.46 L 1.53 -3.46 L 1.53 -5.5 L 4.51 -5.5 L 4.51 -6.18 L 0.75 -6.18 Z M 0.75 0 "/>
</g>
<g id="stockage-types-glyph-1-7">
<path d="M 0.75 0 L 3.01 0 C 4.46 0 5.09 -0.71 5.09 -1.65 C 5.09 -2.62 4.40 -3.15 3.82 -3.18 L 3.82 -3.25 C 4.37 -3.39 4.84 -3.75 4.84 -4.54 C 4.84 -5.45 4.23 -6.18 2.93 -6.18 L 0.75 -6.18 Z M 1.53 -0.70 L 1.53 -2.81 L 3.03 -2.81 C 3.82 -2.81 4.32 -2.28 4.32 -1.65 C 4.32 -1.12 3.95 -0.70 3 -0.70 Z M 1.53 -3.46 L 1.53 -5.5 L 2.92 -5.5 C 3.73 -5.5 4.09 -5.07 4.09 -4.53 C 4.09 -3.89 3.56 -3.46 2.90 -3.46 Z M 1.53 -3.46 "/>
</g>
<g id="stockage-types-glyph-1-8">
<path d="M 2.73 0.10 C 4.15 0.10 4.98 -0.67 4.98 -1.68 C 4.98 -2.84 3.89 -3.21 3.21 -3.40 L 2.60 -3.56 C 2.15 -3.68 1.42 -3.92 1.42 -4.57 C 1.42 -5.15 1.95 -5.57 2.76 -5.57 C 3.5 -5.57 4.04 -5.23 4.12 -4.62 L 4.89 -4.62 C 4.85 -5.56 4 -6.28 2.78 -6.28 C 1.59 -6.28 0.65 -5.57 0.65 -4.53 C 0.65 -3.71 1.23 -3.20 2.23 -2.92 L 2.98 -2.70 C 3.64 -2.51 4.20 -2.29 4.20 -1.70 C 4.20 -1.04 3.56 -0.59 2.73 -0.59 C 2 -0.59 1.35 -0.92 1.29 -1.62 L 0.48 -1.62 C 0.54 -0.57 1.39 0.10 2.73 0.10 Z M 2.73 0.10 "/>
</g>
<g id="stockage-types-glyph-1-9">
<path d="M 0.75 0 L 1.53 0 L 1.53 -2.67 L 4.20 -2.67 L 4.20 -3.37 L 1.53 -3.37 L 1.53 -5.5 L 4.5 -5.5 L 4.5 -6.18 L 0.75 -6.18 Z M 0.75 0 "/>
</g>
<g id="stockage-types-glyph-1-10">
<path d="M 2.64 0.07 C 3.85 0.07 4.75 -0.67 4.75 -1.68 C 4.75 -2.46 4.29 -3.03 3.5 -3.17 L 3.5 -3.21 C 4.12 -3.40 4.53 -3.92 4.53 -4.60 C 4.53 -5.5 3.81 -6.28 2.67 -6.28 C 1.57 -6.28 0.68 -5.60 0.65 -4.64 L 1.40 -4.64 C 1.43 -5.23 2.01 -5.59 2.64 -5.59 C 3.32 -5.59 3.75 -5.18 3.75 -4.57 C 3.75 -3.93 3.25 -3.51 2.53 -3.51 L 2.03 -3.51 L 2.03 -2.82 L 2.53 -2.82 C 3.45 -2.82 3.96 -2.35 3.96 -1.68 C 3.96 -1.04 3.40 -0.60 2.62 -0.60 C 1.92 -0.60 1.35 -0.96 1.31 -1.56 L 0.51 -1.56 C 0.56 -0.57 1.42 0.07 2.64 0.07 Z M 2.64 0.07 "/>
</g>
<g id="stockage-types-glyph-1-11">
<path d="M 2 0 L 2.78 0 L 4.56 -4.64 L 3.73 -4.64 L 2.75 -1.89 C 2.60 -1.48 2.5 -1.07 2.39 -0.68 C 2.28 -1.07 2.17 -1.48 2.03 -1.89 L 1.04 -4.64 L 0.21 -4.64 Z M 2 0 "/>
</g>
<g id="stockage-types-glyph-1-12">
<path d="M 2.23 0.06 C 2.84 0.06 3.34 -0.18 3.65 -0.87 L 3.65 0 L 4.37 0 L 4.37 -4.64 L 3.62 -4.64 L 3.62 -1.85 C 3.62 -1.06 3.12 -0.60 2.45 -0.60 C 1.81 -0.60 1.40 -1.04 1.40 -1.76 L 1.40 -4.64 L 0.65 -4.64 L 0.65 -1.70 C 0.65 -0.51 1.29 0.06 2.23 0.06 Z M 2.23 0.06 "/>
</g>
<g id="stockage-types-glyph-1-13">
<path d="M 2.54 0.09 C 3.45 0.09 4.20 -0.39 4.45 -1.21 L 3.73 -1.42 C 3.59 -0.92 3.17 -0.56 2.54 -0.56 C 1.62 -0.56 1.18 -1.37 1.18 -2.29 C 1.18 -3.21 1.62 -4.03 2.54 -4.03 C 3.15 -4.03 3.57 -3.68 3.71 -3.21 L 4.43 -3.42 C 4.17 -4.23 3.45 -4.70 2.54 -4.70 C 1.28 -4.70 0.43 -3.75 0.43 -2.29 C 0.43 -0.85 1.28 0.09 2.54 0.09 Z M 2.54 0.09 "/>
</g>
<g id="stockage-types-glyph-1-14">
<path d="M 2.60 0.09 C 3.56 0.09 4.25 -0.37 4.46 -1.07 L 3.75 -1.28 C 3.57 -0.81 3.15 -0.56 2.60 -0.56 C 1.79 -0.56 1.21 -1.09 1.18 -2.06 L 4.54 -2.06 L 4.54 -2.37 C 4.54 -4.09 3.51 -4.70 2.51 -4.70 C 1.25 -4.70 0.43 -3.71 0.43 -2.28 C 0.43 -0.85 1.26 0.09 2.60 0.09 Z M 1.18 -2.70 C 1.23 -3.40 1.71 -4.04 2.51 -4.04 C 3.28 -4.04 3.71 -3.48 3.78 -2.70 Z M 1.18 -2.70 "/>
</g>
<g id="stockage-types-glyph-1-15">
<path d="M 2.39 0.09 C 3.28 0.09 3.59 -0.46 3.75 -0.71 L 3.82 -0.71 L 3.82 0 L 4.56 0 L 4.56 -6.18 L 3.81 -6.18 L 3.81 -3.90 L 3.75 -3.90 C 3.59 -4.14 3.31 -4.70 2.40 -4.70 C 1.25 -4.70 0.43 -3.78 0.43 -2.31 C 0.43 -0.82 1.23 0.09 2.39 0.09 Z M 2.51 -0.56 C 1.64 -0.56 1.18 -1.34 1.18 -2.31 C 1.18 -3.28 1.62 -4.03 2.51 -4.03 C 3.35 -4.03 3.81 -3.34 3.81 -2.31 C 3.81 -1.28 3.35 -0.56 2.51 -0.56 Z M 2.51 -0.56 "/>
</g>
<g id="stockage-types-glyph-1-16">
<path d="M 0.65 0 L 1.40 0 L 1.40 -4.64 L 0.65 -4.64 Z M 1.03 -5.40 C 1.32 -5.40 1.56 -5.62 1.56 -5.90 C 1.56 -6.17 1.32 -6.39 1.03 -6.39 C 0.75 -6.39 0.51 -6.17 0.51 -5.90 C 0.51 -5.62 0.75 -5.40 1.03 -5.40 Z M 1.03 -5.40 "/>
</g>
<g id="stockage-types-glyph-1-17">
<path d="M 2.23 0.09 C 3.32 0.09 4.06 -0.5 4.06 -1.31 C 4.06 -1.93 3.67 -2.35 2.82 -2.56 L 2.12 -2.73 C 1.57 -2.85 1.34 -3.04 1.34 -3.39 C 1.34 -3.78 1.76 -4.06 2.31 -4.06 C 2.90 -4.06 3.17 -3.75 3.29 -3.40 L 3.98 -3.59 C 3.76 -4.23 3.26 -4.70 2.31 -4.70 C 1.32 -4.70 0.59 -4.14 0.59 -3.34 C 0.59 -2.70 1 -2.28 1.84 -2.07 L 2.60 -1.90 C 3.06 -1.79 3.29 -1.57 3.29 -1.26 C 3.29 -0.87 2.87 -0.56 2.23 -0.56 C 1.67 -0.56 1.29 -0.78 1.15 -1.29 L 0.45 -1.12 C 0.60 -0.32 1.28 0.09 2.23 0.09 Z M 2.23 0.09 "/>
</g>
<g id="stockage-types-glyph-1-18">
<path d="M 4.56 1.73 L 4.56 -4.64 L 3.82 -4.64 L 3.82 -3.90 L 3.75 -3.90 C 3.59 -4.14 3.31 -4.70 2.40 -4.70 C 1.25 -4.70 0.43 -3.78 0.43 -2.31 C 0.43 -0.82 1.23 0.09 2.39 0.09 C 3.28 0.09 3.59 -0.46 3.75 -0.71 L 3.81 -0.71 L 3.81 1.73 Z M 2.51 -0.56 C 1.64 -0.56 1.18 -1.34 1.18 -2.31 C 1.18 -3.28 1.62 -4.03 2.51 -4.03 C 3.35 -4.03 3.81 -3.34 3.81 -2.31 C 3.81 -1.28 3.35 -0.56 2.51 -0.56 Z M 2.51 -0.56 "/>
</g>
<g id="stockage-types-glyph-1-19">
<path d="M 1.40 -6.18 L 0.65 -6.18 L 0.65 0 L 1.40 0 Z M 1.40 -6.18 "/>
</g>
<g id="stockage-types-glyph-1-20">
<path d="M 0.53 1.48 L 1.10 1.48 L 1.75 -0.85 L 0.89 -0.85 Z M 1.34 -3.31 C 1.65 -3.31 1.90 -3.56 1.90 -3.87 C 1.90 -4.18 1.65 -4.43 1.34 -4.43 C 1.03 -4.43 0.78 -4.18 0.78 -3.87 C 0.78 -3.56 1.03 -3.31 1.34 -3.31 Z M 1.34 -3.31 "/>
</g>
<g id="stockage-types-glyph-1-21">
<path d="M 2.48 -4.64 L 1.53 -4.64 L 1.53 -5.75 L 0.78 -5.75 L 0.78 -4.64 L 0.07 -4.64 L 0.07 -4 L 0.78 -4 L 0.78 -1.14 C 0.78 -0.39 1.25 0.06 2.06 0.06 C 2.25 0.06 2.45 0.03 2.60 -0.03 L 2.45 -0.65 C 2.32 -0.62 2.17 -0.60 2.07 -0.60 C 1.68 -0.60 1.53 -0.79 1.53 -1.20 L 1.53 -4 L 2.48 -4 Z M 2.48 -4.64 "/>
</g>
<g id="stockage-types-glyph-1-22">
<path d="M 1.40 -2.78 C 1.40 -3.57 1.90 -4.03 2.57 -4.03 C 3.21 -4.03 3.62 -3.60 3.62 -2.89 L 3.62 0 L 4.37 0 L 4.37 -2.95 C 4.37 -4.12 3.73 -4.70 2.79 -4.70 C 2.18 -4.70 1.70 -4.45 1.40 -3.84 L 1.40 -6.18 L 0.65 -6.18 L 0.65 0 L 1.40 0 Z M 1.40 -2.78 "/>
</g>
<g id="stockage-types-glyph-1-23">
<path d="M 2.60 0.09 C 3.56 0.09 4.25 -0.37 4.46 -1.07 L 3.75 -1.28 C 3.57 -0.81 3.15 -0.56 2.60 -0.56 C 1.79 -0.56 1.21 -1.09 1.18 -2.06 L 4.54 -2.06 L 4.54 -2.37 C 4.54 -4.09 3.51 -4.70 2.51 -4.70 C 1.25 -4.70 0.43 -3.71 0.43 -2.28 C 0.43 -0.85 1.26 0.09 2.60 0.09 Z M 1.18 -2.70 C 1.23 -3.40 1.71 -4.04 2.51 -4.04 C 3.28 -4.04 3.71 -3.48 3.78 -2.70 Z M 2.17 -5.25 L 2.78 -5.25 L 3.59 -6.46 L 2.76 -6.46 Z M 2.17 -5.25 "/>
</g>
<g id="stockage-types-glyph-1-24">
<path d="M 1.95 0.10 C 2.75 0.10 3.17 -0.29 3.34 -0.62 L 3.39 -0.62 L 3.39 0 L 4.12 0 L 4.12 -3.06 C 4.12 -4.51 3 -4.70 2.37 -4.70 C 1.65 -4.70 0.85 -4.45 0.5 -3.60 L 1.21 -3.35 C 1.37 -3.68 1.73 -4.04 2.40 -4.04 C 3.04 -4.04 3.37 -3.71 3.37 -3.14 L 3.37 -3.10 C 3.37 -2.76 3.01 -2.79 2.18 -2.68 C 1.32 -2.57 0.37 -2.39 0.37 -1.32 C 0.37 -0.40 1.07 0.10 1.95 0.10 Z M 2.09 -0.54 C 1.53 -0.54 1.12 -0.79 1.12 -1.28 C 1.12 -1.81 1.60 -1.98 2.15 -2.06 C 2.43 -2.09 3.25 -2.17 3.37 -2.32 L 3.37 -1.67 C 3.37 -1.10 2.90 -0.54 2.09 -0.54 Z M 2.03 -5.25 L 2.64 -5.25 L 2.06 -6.46 L 1.21 -6.46 Z M 2.03 -5.25 "/>
</g>
<g id="stockage-types-glyph-1-25">
<path d="M 0.53 1.48 L 1.10 1.48 L 1.75 -0.85 L 0.89 -0.85 Z M 0.53 1.48 "/>
</g>
<g id="stockage-types-glyph-1-26">
<path d="M 0.65 0 L 1.40 0 L 1.40 -2.90 C 1.40 -3.53 1.89 -3.98 2.56 -3.98 C 2.76 -3.98 2.96 -3.95 3.01 -3.95 L 3.01 -4.70 C 2.92 -4.70 2.75 -4.71 2.64 -4.71 C 2.07 -4.71 1.59 -4.40 1.43 -3.93 L 1.37 -3.93 L 1.37 -4.64 L 0.65 -4.64 Z M 0.65 0 "/>
</g>
<g id="stockage-types-glyph-1-27">
<path d="M 0.65 1.73 L 1.40 1.73 L 1.40 -0.71 L 1.46 -0.71 C 1.60 -0.46 1.92 0.09 2.81 0.09 C 3.96 0.09 4.78 -0.82 4.78 -2.31 C 4.78 -3.78 3.96 -4.70 2.81 -4.70 C 1.90 -4.70 1.60 -4.14 1.46 -3.90 L 1.37 -3.90 L 1.37 -4.64 L 0.65 -4.64 Z M 2.70 -0.56 C 1.85 -0.56 1.39 -1.28 1.39 -2.31 C 1.39 -3.34 1.84 -4.03 2.70 -4.03 C 3.57 -4.03 4.01 -3.28 4.01 -2.31 C 4.01 -1.34 3.56 -0.56 2.70 -0.56 Z M 2.70 -0.56 "/>
</g>
<g id="stockage-types-glyph-1-28">
<path d="M 2.54 1.84 C 3.67 1.84 4.56 1.32 4.56 0.12 L 4.56 -4.64 L 3.84 -4.64 L 3.84 -3.90 L 3.76 -3.90 C 3.60 -4.15 3.31 -4.70 2.40 -4.70 C 1.25 -4.70 0.43 -3.78 0.43 -2.34 C 0.43 -0.89 1.28 -0.07 2.39 -0.07 C 3.29 -0.07 3.59 -0.59 3.75 -0.85 L 3.81 -0.85 L 3.81 0.07 C 3.81 0.84 3.28 1.18 2.54 1.18 C 1.71 1.18 1.43 0.76 1.23 0.5 L 0.62 0.89 C 0.92 1.40 1.51 1.84 2.54 1.84 Z M 2.51 -0.73 C 1.64 -0.73 1.18 -1.40 1.18 -2.35 C 1.18 -3.28 1.64 -4.03 2.51 -4.03 C 3.37 -4.03 3.82 -3.34 3.82 -2.35 C 3.82 -1.34 3.35 -0.73 2.51 -0.73 Z M 2.51 -0.73 "/>
</g>
<g id="stockage-types-glyph-1-29">
<path d="M 0.90 -2.90 C 0.90 -1.70 1.26 -0.43 1.98 0.76 L 2.70 0.76 C 1.98 -0.70 1.67 -1.81 1.67 -2.90 C 1.67 -4.12 2.06 -5.65 2.70 -6.96 L 1.98 -6.96 C 1.35 -5.93 0.90 -4.26 0.90 -2.90 Z M 0.90 -2.90 "/>
</g>
<g id="stockage-types-glyph-1-30">
<path d="M 0.75 0 L 1.54 0 L 1.54 -3.53 C 1.54 -3.82 1.51 -4.45 1.48 -5.25 C 1.96 -4.39 2.20 -3.96 2.48 -3.53 L 4.71 0 L 5.67 0 L 5.67 -6.18 L 4.87 -6.18 L 4.87 -2.39 C 4.87 -2.06 4.87 -1.53 4.92 -0.93 C 4.64 -1.5 4.35 -1.96 4.20 -2.23 L 1.67 -6.18 L 0.75 -6.18 Z M 0.75 0 "/>
</g>
<g id="stockage-types-glyph-1-31">
<path d="M 0.40 1.15 L 1.12 1.15 C 1.82 -0.01 2.20 -1.28 2.20 -2.51 C 2.20 -3.87 1.75 -5.54 1.12 -6.57 L 0.40 -6.57 C 1.04 -5.26 1.43 -3.73 1.43 -2.51 C 1.43 -1.45 1.14 -0.35 0.40 1.15 Z M 0.40 1.15 "/>
</g>
<g id="stockage-types-glyph-1-32">
<path d="M 0.75 0 L 1.53 0 L 1.53 -2.81 L 4.78 -2.81 L 4.78 0 L 5.57 0 L 5.57 -6.18 L 4.78 -6.18 L 4.78 -3.51 L 1.53 -3.51 L 1.53 -6.18 L 0.75 -6.18 Z M 0.75 0 "/>
</g>
<g id="stockage-types-glyph-1-33">
<path d="M 0.40 -5.5 L 2.35 -5.5 L 2.35 0 L 3.14 0 L 3.14 -5.5 L 5.09 -5.5 L 5.09 -6.18 L 0.40 -6.18 Z M 0.40 -5.5 "/>
</g>
<g id="stockage-types-glyph-1-34">
<path d="M 0.75 0 L 1.53 0 L 1.53 -2.23 L 2.87 -2.23 C 4.31 -2.23 4.98 -3.12 4.98 -4.21 C 4.98 -5.32 4.31 -6.18 2.87 -6.18 L 0.75 -6.18 Z M 1.53 -2.93 L 1.53 -5.5 L 2.82 -5.5 C 3.81 -5.5 4.18 -4.95 4.18 -4.21 C 4.18 -3.48 3.81 -2.93 2.82 -2.93 Z M 1.53 -2.93 "/>
</g>
<g id="stockage-types-glyph-1-35">
<path d="M 2.81 0.09 C 3.96 0.09 4.78 -0.82 4.78 -2.31 C 4.78 -3.78 3.96 -4.70 2.81 -4.70 C 1.90 -4.70 1.60 -4.14 1.46 -3.90 L 1.40 -3.90 L 1.40 -6.18 L 0.65 -6.18 L 0.65 0 L 1.37 0 L 1.37 -0.71 L 1.46 -0.71 C 1.60 -0.46 1.92 0.09 2.81 0.09 Z M 2.70 -0.56 C 1.85 -0.56 1.39 -1.28 1.39 -2.31 C 1.39 -3.34 1.84 -4.03 2.70 -4.03 C 3.57 -4.03 4.01 -3.28 4.01 -2.31 C 4.01 -1.34 3.56 -0.56 2.70 -0.56 Z M 2.70 -0.56 "/>
</g>
<g id="stockage-types-glyph-1-36">
<path d="M 0.65 -4.64 L 0.65 0.32 C 0.65 0.79 0.46 1.04 0.03 1.04 L -0.10 1.04 L -0.10 1.73 L 0.04 1.73 C 0.93 1.73 1.40 1.21 1.40 0.32 L 1.40 -4.64 Z M 1.03 -5.40 C 1.31 -5.40 1.54 -5.62 1.54 -5.90 C 1.54 -6.17 1.31 -6.39 1.03 -6.39 C 0.75 -6.39 0.51 -6.17 0.51 -5.90 C 0.51 -5.62 0.75 -5.40 1.03 -5.40 Z M 1.03 -5.40 "/>
</g>
<g id="stockage-types-glyph-1-37">
<path d="M 2.60 0.09 C 3.56 0.09 4.25 -0.37 4.46 -1.07 L 3.75 -1.28 C 3.57 -0.81 3.15 -0.56 2.60 -0.56 C 1.79 -0.56 1.21 -1.09 1.18 -2.06 L 4.54 -2.06 L 4.54 -2.37 C 4.54 -4.09 3.51 -4.70 2.51 -4.70 C 1.25 -4.70 0.43 -3.71 0.43 -2.28 C 0.43 -0.85 1.26 0.09 2.60 0.09 Z M 1.18 -2.70 C 1.23 -3.40 1.71 -4.04 2.51 -4.04 C 3.28 -4.04 3.71 -3.48 3.78 -2.70 Z M 1.90 -5.32 L 2.5 -6.06 L 3.09 -5.32 L 3.84 -5.32 L 3.84 -5.35 L 2.85 -6.46 L 2.15 -6.46 L 1.17 -5.35 L 1.17 -5.32 Z M 1.90 -5.32 "/>
</g>
<g id="stockage-types-glyph-1-38">
<path d="M 0.67 -3.84 L 1.23 -3.84 L 1.89 -6.18 L 1.03 -6.18 Z M 0.67 -3.84 "/>
</g>
<g id="stockage-types-glyph-2-0">
<path d="M 2.10 0.06 C 2.68 0.06 3.15 -0.18 3.45 -0.81 L 3.45 0 L 4.12 0 L 4.12 -4.39 L 3.42 -4.39 L 3.42 -1.75 C 3.42 -1.01 2.95 -0.57 2.31 -0.57 C 1.70 -0.57 1.32 -0.98 1.32 -1.65 L 1.32 -4.39 L 0.62 -4.39 L 0.62 -1.59 C 0.62 -0.48 1.21 0.06 2.10 0.06 Z M 2.10 0.06 "/>
</g>
<g id="stockage-types-glyph-2-1">
<path d="M 1.32 -2.62 C 1.32 -3.37 1.79 -3.79 2.43 -3.79 C 3.04 -3.79 3.42 -3.40 3.42 -2.71 L 3.42 0 L 4.12 0 L 4.12 -2.78 C 4.12 -3.89 3.53 -4.43 2.64 -4.43 C 2.06 -4.43 1.57 -4.18 1.29 -3.57 L 1.29 -4.39 L 0.62 -4.39 L 0.62 0 L 1.32 0 Z M 1.32 -2.62 "/>
</g>
<g id="stockage-types-glyph-2-2">
<path d="M 2.46 0.09 C 3.35 0.09 4.01 -0.35 4.21 -1.01 L 3.53 -1.20 C 3.37 -0.76 2.98 -0.53 2.46 -0.53 C 1.68 -0.53 1.15 -1.03 1.12 -1.95 L 4.29 -1.95 L 4.29 -2.25 C 4.29 -3.85 3.31 -4.43 2.37 -4.43 C 1.18 -4.43 0.40 -3.5 0.40 -2.15 C 0.40 -0.81 1.18 0.09 2.46 0.09 Z M 1.12 -2.54 C 1.17 -3.21 1.62 -3.81 2.37 -3.81 C 3.10 -3.81 3.5 -3.29 3.57 -2.54 Z M 1.12 -2.54 "/>
</g>
<g id="stockage-types-glyph-2-3">
<path d="M 0.62 0 L 1.32 0 L 1.32 -4.39 L 0.62 -4.39 Z M 0.98 -5.10 C 1.25 -5.10 1.46 -5.31 1.46 -5.56 C 1.46 -5.82 1.25 -6.03 0.98 -6.03 C 0.70 -6.03 0.48 -5.82 0.48 -5.56 C 0.48 -5.31 0.70 -5.10 0.98 -5.10 Z M 0.98 -5.10 "/>
</g>
<g id="stockage-types-glyph-2-4">
<path d="M 2.10 0.09 C 3.14 0.09 3.84 -0.46 3.84 -1.23 C 3.84 -1.82 3.46 -2.23 2.67 -2.42 L 2.01 -2.57 C 1.5 -2.70 1.26 -2.87 1.26 -3.20 C 1.26 -3.56 1.65 -3.84 2.18 -3.84 C 2.75 -3.84 3 -3.53 3.12 -3.21 L 3.75 -3.39 C 3.56 -4 3.07 -4.43 2.18 -4.43 C 1.25 -4.43 0.56 -3.92 0.56 -3.15 C 0.56 -2.54 0.93 -2.15 1.73 -1.96 L 2.46 -1.79 C 2.89 -1.68 3.10 -1.48 3.10 -1.18 C 3.10 -0.82 2.71 -0.53 2.10 -0.53 C 1.57 -0.53 1.21 -0.73 1.09 -1.21 L 0.42 -1.06 C 0.57 -0.31 1.20 0.09 2.10 0.09 Z M 2.10 0.09 "/>
</g>
<g id="stockage-types-glyph-2-5">
<path d="M 2.34 -4.39 L 1.43 -4.39 L 1.43 -5.42 L 0.73 -5.42 L 0.73 -4.39 L 0.07 -4.39 L 0.07 -3.78 L 0.73 -3.78 L 0.73 -1.07 C 0.73 -0.35 1.18 0.06 1.93 0.06 C 2.12 0.06 2.32 0.03 2.46 -0.03 L 2.32 -0.62 C 2.20 -0.59 2.04 -0.57 1.96 -0.57 C 1.59 -0.57 1.43 -0.75 1.43 -1.14 L 1.43 -3.78 L 2.34 -3.78 Z M 2.34 -4.39 "/>
</g>
<g id="stockage-types-glyph-2-6">
<path d="M 1.84 0.10 C 2.59 0.10 3 -0.28 3.15 -0.59 L 3.20 -0.59 L 3.20 0 L 3.89 0 L 3.89 -2.89 C 3.89 -4.26 2.82 -4.43 2.25 -4.43 C 1.56 -4.43 0.81 -4.20 0.48 -3.40 L 1.15 -3.17 C 1.29 -3.48 1.64 -3.81 2.26 -3.81 C 2.87 -3.81 3.18 -3.5 3.18 -2.96 L 3.18 -2.93 C 3.18 -2.60 2.84 -2.64 2.06 -2.53 C 1.25 -2.43 0.35 -2.25 0.35 -1.25 C 0.35 -0.39 1.01 0.10 1.84 0.10 Z M 1.96 -0.51 C 1.43 -0.51 1.06 -0.75 1.06 -1.21 C 1.06 -1.70 1.51 -1.87 2.03 -1.93 C 2.29 -1.98 3.06 -2.06 3.18 -2.18 L 3.18 -1.57 C 3.18 -1.04 2.75 -0.51 1.96 -0.51 Z M 1.96 -0.51 "/>
</g>
<g id="stockage-types-glyph-2-7">
<path d="M 2.40 0.09 C 3.26 0.09 3.96 -0.37 4.20 -1.15 L 3.51 -1.34 C 3.39 -0.87 3 -0.53 2.40 -0.53 C 1.53 -0.53 1.12 -1.29 1.12 -2.17 C 1.12 -3.04 1.53 -3.81 2.40 -3.81 C 2.98 -3.81 3.37 -3.48 3.5 -3.03 L 4.18 -3.23 C 3.93 -4 3.25 -4.43 2.40 -4.43 C 1.21 -4.43 0.40 -3.53 0.40 -2.17 C 0.40 -0.81 1.21 0.09 2.40 0.09 Z M 2.40 0.09 "/>
</g>
<g id="stockage-types-glyph-2-8">
<path d="M 1.89 0 L 2.62 0 L 4.29 -4.39 L 3.53 -4.39 L 2.59 -1.78 C 2.45 -1.40 2.35 -1.01 2.26 -0.65 C 2.15 -1.01 2.06 -1.40 1.92 -1.78 L 0.98 -4.39 L 0.21 -4.39 Z M 1.89 0 "/>
</g>
<g id="stockage-types-glyph-2-9">
<path d="M 2.40 0.09 C 3.59 0.09 4.40 -0.81 4.40 -2.17 C 4.40 -3.53 3.59 -4.43 2.40 -4.43 C 1.21 -4.43 0.40 -3.53 0.40 -2.17 C 0.40 -0.81 1.21 0.09 2.40 0.09 Z M 2.40 -0.53 C 1.53 -0.53 1.12 -1.29 1.12 -2.17 C 1.12 -3.04 1.53 -3.81 2.40 -3.81 C 3.29 -3.81 3.68 -3.03 3.68 -2.17 C 3.68 -1.29 3.29 -0.53 2.40 -0.53 Z M 2.40 -0.53 "/>
</g>
<g id="stockage-types-glyph-2-10">
<path d="M 1.32 -5.84 L 0.62 -5.84 L 0.62 0 L 1.32 0 Z M 1.32 -5.84 "/>
</g>
<g id="stockage-types-glyph-2-11">
<path d="M 0.62 0 L 1.32 0 L 1.32 -2.76 C 1.32 -3.45 1.79 -3.81 2.31 -3.81 C 2.79 -3.81 3.17 -3.5 3.17 -3.01 L 3.17 0 L 3.87 0 L 3.87 -2.85 C 3.87 -3.42 4.23 -3.81 4.82 -3.81 C 5.29 -3.81 5.70 -3.56 5.70 -2.93 L 5.70 0 L 6.42 0 L 6.42 -2.95 C 6.42 -3.96 5.79 -4.46 5.03 -4.46 C 4.40 -4.46 3.85 -4.12 3.65 -3.56 C 3.5 -4.10 3.10 -4.46 2.53 -4.46 C 2.01 -4.46 1.53 -4.17 1.31 -3.57 L 1.31 -4.39 L 0.62 -4.39 Z M 0.62 0 "/>
</g>
<g id="stockage-types-glyph-2-12">
<path d="M 2.56 -5.84 L 1.64 -5.84 L 0.37 -4.90 L 0.37 -4.10 L 1.78 -5.15 L 1.82 -5.15 L 1.82 0 L 2.56 0 Z M 2.56 -5.84 "/>
</g>
<g id="stockage-types-glyph-2-13">
<path d="M 0.60 0 L 4.32 0 L 4.32 -0.65 L 1.62 -0.65 L 1.62 -0.70 L 2.90 -2.06 C 3.93 -3.15 4.23 -3.65 4.23 -4.29 C 4.23 -5.20 3.48 -5.92 2.43 -5.92 C 1.40 -5.92 0.62 -5.21 0.62 -4.18 L 1.32 -4.18 C 1.32 -4.84 1.75 -5.28 2.42 -5.28 C 3.04 -5.28 3.51 -4.89 3.51 -4.28 C 3.51 -3.75 3.18 -3.34 2.54 -2.64 L 0.60 -0.53 Z M 0.60 0 "/>
</g>
<g id="stockage-types-glyph-2-14">
<path d="M 0.54 1.59 C 0.62 1.62 0.81 1.67 1.06 1.67 C 1.68 1.67 2.10 1.35 2.37 0.65 L 4.29 -4.39 L 3.53 -4.39 L 2.59 -1.78 C 2.45 -1.40 2.35 -1.03 2.25 -0.65 C 2.15 -1.03 2.06 -1.40 1.92 -1.78 L 0.98 -4.39 L 0.21 -4.39 L 1.89 0.03 L 1.76 0.39 C 1.54 1.01 1.23 1.10 0.79 1 L 0.73 0.98 Z M 0.54 1.59 "/>
</g>
<g id="stockage-types-glyph-2-15">
<path d="M 2.46 0.09 C 3.35 0.09 4.01 -0.35 4.21 -1.01 L 3.53 -1.20 C 3.37 -0.76 2.98 -0.53 2.46 -0.53 C 1.68 -0.53 1.15 -1.03 1.12 -1.95 L 4.29 -1.95 L 4.29 -2.25 C 4.29 -3.85 3.31 -4.43 2.37 -4.43 C 1.18 -4.43 0.40 -3.5 0.40 -2.15 C 0.40 -0.81 1.18 0.09 2.46 0.09 Z M 1.12 -2.54 C 1.17 -3.21 1.62 -3.81 2.37 -3.81 C 3.10 -3.81 3.5 -3.29 3.57 -2.54 Z M 2.09 -4.95 L 2.67 -4.95 L 2.12 -6.10 L 1.32 -6.10 Z M 2.09 -4.95 "/>
</g>
<g id="stockage-types-glyph-2-16">
<path d="M 2.26 0.09 C 3.09 0.09 3.39 -0.43 3.53 -0.67 L 3.60 -0.67 L 3.60 0 L 4.29 0 L 4.29 -5.84 L 3.59 -5.84 L 3.59 -3.68 L 3.53 -3.68 C 3.39 -3.92 3.12 -4.43 2.26 -4.43 C 1.17 -4.43 0.40 -3.56 0.40 -2.18 C 0.40 -0.78 1.17 0.09 2.26 0.09 Z M 2.37 -0.53 C 1.54 -0.53 1.12 -1.26 1.12 -2.18 C 1.12 -3.09 1.53 -3.81 2.37 -3.81 C 3.17 -3.81 3.59 -3.15 3.59 -2.18 C 3.59 -1.21 3.17 -0.53 2.37 -0.53 Z M 2.37 -0.53 "/>
</g>
<g id="stockage-types-glyph-2-17">
<path d="M 2.65 -4.39 L 1.64 -4.39 L 1.64 -4.81 C 1.64 -5.23 1.82 -5.46 2.26 -5.46 C 2.46 -5.46 2.57 -5.42 2.65 -5.39 L 2.84 -6 C 2.73 -6.04 2.51 -6.12 2.18 -6.12 C 1.54 -6.12 0.93 -5.73 0.93 -4.96 L 0.93 -4.39 L 0.07 -4.39 L 0.07 -3.78 L 0.93 -3.78 L 0.93 0 L 1.64 0 L 1.64 -3.78 L 2.65 -3.78 Z M 2.65 -4.39 "/>
</g>
<g id="stockage-types-glyph-2-18">
<path d="M 1.32 -2.62 C 1.32 -3.37 1.79 -3.79 2.43 -3.79 C 3.04 -3.79 3.42 -3.40 3.42 -2.71 L 3.42 0 L 4.12 0 L 4.12 -2.78 C 4.12 -3.89 3.53 -4.43 2.64 -4.43 C 2.07 -4.43 1.60 -4.20 1.32 -3.62 L 1.32 -5.84 L 0.62 -5.84 L 0.62 0 L 1.32 0 Z M 1.32 -2.62 "/>
</g>
<g id="stockage-types-glyph-2-19">
<path d="M 0.62 0 L 1.32 0 L 1.32 -2.75 C 1.32 -3.34 1.78 -3.76 2.42 -3.76 C 2.60 -3.76 2.79 -3.73 2.84 -3.71 L 2.84 -4.43 C 2.76 -4.43 2.59 -4.45 2.48 -4.45 C 1.96 -4.45 1.51 -4.15 1.34 -3.70 L 1.29 -3.70 L 1.29 -4.39 L 0.62 -4.39 Z M 0.62 0 "/>
</g>
<g id="stockage-types-glyph-2-20">
<path d="M 2.65 0.09 C 3.75 0.09 4.51 -0.78 4.51 -2.18 C 4.51 -3.56 3.75 -4.43 2.65 -4.43 C 1.79 -4.43 1.53 -3.92 1.37 -3.68 L 1.32 -3.68 L 1.32 -5.84 L 0.62 -5.84 L 0.62 0 L 1.29 0 L 1.29 -0.67 L 1.37 -0.67 C 1.53 -0.43 1.81 0.09 2.65 0.09 Z M 2.54 -0.53 C 1.75 -0.53 1.31 -1.21 1.31 -2.18 C 1.31 -3.15 1.73 -3.81 2.54 -3.81 C 3.37 -3.81 3.79 -3.09 3.79 -2.18 C 3.79 -1.26 3.37 -0.53 2.54 -0.53 Z M 2.54 -0.53 "/>
</g>
<g id="stockage-types-glyph-2-21">
<path d="M 0.62 0 L 1.32 0 L 1.32 -1.60 L 1.78 -2.04 L 3.39 0 L 4.29 0 L 2.32 -2.5 L 4.15 -4.39 L 3.28 -4.39 L 1.40 -2.45 L 1.32 -2.45 L 1.32 -5.84 L 0.62 -5.84 Z M 0.62 0 "/>
</g>
</g>
<clipPath id="stockage-types-clip-0">
<rect x="0" y="0" width="29" height="30"/>
</clipPath>
<g id="stockage-types-source-5" clip-path="url(#stockage-types-clip-0)">
<path fill-rule="evenodd" style="fill:var(--fig-ic-compute)" fill-opacity="1" d="M 5.40 23.79 L 23.08 23.79 L 23.08 6.11 L 5.40 6.11 Z M 27.21 8.47 L 27.21 7.29 L 24.26 7.29 L 24.26 5.52 C 24.26 5.20 24 4.93 23.67 4.93 L 21.90 4.93 L 21.90 1.99 L 20.73 1.99 L 20.73 4.93 L 18.37 4.93 L 18.37 1.99 L 17.19 1.99 L 17.19 4.93 L 14.83 4.93 L 14.83 1.99 L 13.65 1.99 L 13.65 4.93 L 11.29 4.93 L 11.29 1.99 L 10.12 1.99 L 10.12 4.93 L 7.76 4.93 L 7.76 1.99 L 6.58 1.99 L 6.58 4.93 L 4.81 4.93 C 4.48 4.93 4.22 5.20 4.22 5.52 L 4.22 7.29 L 1.27 7.29 L 1.27 8.47 L 4.22 8.47 L 4.22 10.83 L 1.27 10.83 L 1.27 12.01 L 4.22 12.01 L 4.22 14.36 L 1.27 14.36 L 1.27 15.54 L 4.22 15.54 L 4.22 17.90 L 1.27 17.90 L 1.27 19.08 L 4.22 19.08 L 4.22 21.44 L 1.27 21.44 L 1.27 22.62 L 4.22 22.62 L 4.22 24.38 C 4.22 24.71 4.48 24.97 4.81 24.97 L 6.58 24.97 L 6.58 27.92 L 7.76 27.92 L 7.76 24.97 L 10.12 24.97 L 10.12 27.92 L 11.29 27.92 L 11.29 24.97 L 13.65 24.97 L 13.65 27.92 L 14.83 27.92 L 14.83 24.97 L 17.19 24.97 L 17.19 27.92 L 18.37 27.92 L 18.37 24.97 L 20.73 24.97 L 20.73 27.92 L 21.90 27.92 L 21.90 24.97 L 23.67 24.97 C 24 24.97 24.26 24.71 24.26 24.38 L 24.26 22.62 L 27.21 22.62 L 27.21 21.44 L 24.26 21.44 L 24.26 19.08 L 27.21 19.08 L 27.21 17.90 L 24.26 17.90 L 24.26 15.54 L 27.21 15.54 L 27.21 14.36 L 24.26 14.36 L 24.26 12.01 L 27.21 12.01 L 27.21 10.83 L 24.26 10.83 L 24.26 8.47 Z M 27.21 8.47 "/>
</g>
<clipPath id="stockage-types-clip-1">
<rect x="0" y="0" width="26" height="27"/>
</clipPath>
<g id="stockage-types-source-8" clip-path="url(#stockage-types-clip-1)">
<path fill-rule="evenodd" style="fill:var(--fig-ic-storage)" fill-opacity="1" d="M 16.43 18.16 C 16.05 18.16 15.69 18.08 15.33 17.92 L 15.33 17.37 C 15.76 17.52 16.11 17.59 16.41 17.59 C 16.68 17.59 16.89 17.53 17.04 17.41 C 17.19 17.28 17.26 17.11 17.26 16.88 C 17.26 16.45 16.99 16.24 16.45 16.24 C 16.28 16.24 16.09 16.25 15.89 16.28 L 15.89 15.83 L 17.04 14.58 L 15.39 14.58 L 15.39 14.02 L 17.80 14.02 L 17.80 14.55 L 16.58 15.75 C 16.64 15.74 16.69 15.74 16.75 15.74 C 16.97 15.74 17.18 15.79 17.36 15.88 C 17.55 15.98 17.69 16.11 17.80 16.29 C 17.91 16.46 17.97 16.66 17.97 16.89 C 17.97 17.13 17.91 17.35 17.78 17.54 C 17.66 17.73 17.48 17.88 17.25 17.99 C 17.01 18.10 16.74 18.16 16.43 18.16 Z M 12.69 15.77 C 12.90 15.62 13.14 15.55 13.39 15.55 C 13.64 15.55 13.82 15.64 13.94 15.80 C 14.06 15.96 14.12 16.22 14.12 16.56 C 14.12 16.91 14.05 17.17 13.94 17.33 C 13.82 17.50 13.63 17.59 13.38 17.59 C 13.14 17.59 12.91 17.51 12.69 17.36 Z M 12.69 17.81 C 12.80 17.91 12.93 17.99 13.08 18.05 C 13.23 18.10 13.39 18.13 13.56 18.13 C 13.82 18.13 14.04 18.07 14.23 17.92 C 14.42 17.79 14.57 17.60 14.67 17.36 C 14.77 17.12 14.82 16.85 14.82 16.54 C 14.82 16.07 14.71 15.70 14.49 15.42 C 14.27 15.15 13.97 15.01 13.60 15.01 C 13.42 15.01 13.25 15.04 13.09 15.11 C 12.92 15.17 12.77 15.27 12.64 15.39 L 12.57 15.10 L 12.00 15.10 L 12.00 19.27 L 12.69 19.27 Z M 9.42 15.78 C 9.54 15.62 9.71 15.55 9.95 15.55 C 10.18 15.55 10.40 15.62 10.60 15.76 L 10.60 17.25 C 10.39 17.40 10.17 17.48 9.94 17.48 C 9.48 17.48 9.25 17.15 9.25 16.50 C 9.25 16.17 9.31 15.93 9.42 15.78 Z M 9.74 18.01 C 10.06 18.01 10.35 17.90 10.60 17.68 L 10.60 17.93 C 10.60 18.24 10.53 18.45 10.40 18.59 C 10.27 18.73 10.05 18.79 9.76 18.79 C 9.48 18.79 9.15 18.73 8.79 18.61 L 8.79 19.10 C 9.11 19.26 9.45 19.34 9.81 19.34 C 10.28 19.34 10.65 19.21 10.90 18.95 C 11.16 18.70 11.29 18.33 11.29 17.86 L 11.29 15.10 L 10.70 15.10 L 10.65 15.37 C 10.40 15.13 10.10 15.01 9.76 15.01 C 9.51 15.01 9.30 15.07 9.12 15.20 C 8.93 15.33 8.79 15.51 8.69 15.73 C 8.60 15.96 8.55 16.23 8.55 16.52 C 8.55 16.97 8.66 17.33 8.87 17.60 C 9.09 17.87 9.38 18.01 9.74 18.01 Z M 4.79 24.12 L 21.76 24.12 L 21.76 8.73 L 4.79 8.73 Z M 22.30 7.67 L 4.26 7.67 C 3.97 7.67 3.73 7.91 3.73 8.20 L 3.73 24.65 C 3.73 24.94 3.97 25.18 4.26 25.18 L 22.30 25.18 C 22.59 25.18 22.82 24.94 22.82 24.65 L 22.82 8.20 C 22.82 7.91 22.59 7.67 22.30 7.67 Z M 7.69 2.90 L 18.79 2.90 L 21.19 6.08 L 5.29 6.08 Z M 4.22 7.14 L 22.26 7.14 C 22.46 7.14 22.64 7.03 22.73 6.85 C 22.82 6.67 22.80 6.46 22.68 6.29 L 19.48 2.05 C 19.38 1.92 19.23 1.84 19.06 1.84 L 7.42 1.84 C 7.26 1.84 7.10 1.92 7.00 2.05 L 3.80 6.29 C 3.68 6.46 3.66 6.67 3.75 6.85 C 3.84 7.03 4.02 7.14 4.22 7.14 Z M 4.22 7.14 "/>
</g>
<clipPath id="stockage-types-clip-2">
<rect x="0" y="0" width="29" height="30"/>
</clipPath>
<g id="stockage-types-source-11" clip-path="url(#stockage-types-clip-2)">
<path fill-rule="evenodd" style="fill:var(--fig-ic-compute)" fill-opacity="1" d="M 5.63 23.79 L 23.31 23.79 L 23.31 6.11 L 5.63 6.11 Z M 27.44 8.47 L 27.44 7.29 L 24.49 7.29 L 24.49 5.52 C 24.49 5.20 24.23 4.93 23.90 4.93 L 22.14 4.93 L 22.14 1.99 L 20.96 1.99 L 20.96 4.93 L 18.60 4.93 L 18.60 1.99 L 17.42 1.99 L 17.42 4.93 L 15.06 4.93 L 15.06 1.99 L 13.88 1.99 L 13.88 4.93 L 11.53 4.93 L 11.53 1.99 L 10.35 1.99 L 10.35 4.93 L 7.99 4.93 L 7.99 1.99 L 6.81 1.99 L 6.81 4.93 L 5.04 4.93 C 4.72 4.93 4.45 5.20 4.45 5.52 L 4.45 7.29 L 1.51 7.29 L 1.51 8.47 L 4.45 8.47 L 4.45 10.83 L 1.51 10.83 L 1.51 12.01 L 4.45 12.01 L 4.45 14.36 L 1.51 14.36 L 1.51 15.54 L 4.45 15.54 L 4.45 17.90 L 1.51 17.90 L 1.51 19.08 L 4.45 19.08 L 4.45 21.44 L 1.51 21.44 L 1.51 22.62 L 4.45 22.62 L 4.45 24.38 C 4.45 24.71 4.72 24.97 5.04 24.97 L 6.81 24.97 L 6.81 27.92 L 7.99 27.92 L 7.99 24.97 L 10.35 24.97 L 10.35 27.92 L 11.53 27.92 L 11.53 24.97 L 13.88 24.97 L 13.88 27.92 L 15.06 27.92 L 15.06 24.97 L 17.42 24.97 L 17.42 27.92 L 18.60 27.92 L 18.60 24.97 L 20.96 24.97 L 20.96 27.92 L 22.14 27.92 L 22.14 24.97 L 23.90 24.97 C 24.23 24.97 24.49 24.71 24.49 24.38 L 24.49 22.62 L 27.44 22.62 L 27.44 21.44 L 24.49 21.44 L 24.49 19.08 L 27.44 19.08 L 27.44 17.90 L 24.49 17.90 L 24.49 15.54 L 27.44 15.54 L 27.44 14.36 L 24.49 14.36 L 24.49 12.01 L 27.44 12.01 L 27.44 10.83 L 24.49 10.83 L 24.49 8.47 Z M 27.44 8.47 "/>
</g>
<clipPath id="stockage-types-clip-3">
<rect x="0" y="0" width="29" height="30"/>
</clipPath>
<g id="stockage-types-source-14" clip-path="url(#stockage-types-clip-3)">
<path fill-rule="evenodd" style="fill:var(--fig-ic-compute)" fill-opacity="1" d="M 5.82 23.79 L 23.50 23.79 L 23.50 6.11 L 5.82 6.11 Z M 27.63 8.47 L 27.63 7.29 L 24.68 7.29 L 24.68 5.52 C 24.68 5.20 24.42 4.93 24.09 4.93 L 22.32 4.93 L 22.32 1.99 L 21.14 1.99 L 21.14 4.93 L 18.79 4.93 L 18.79 1.99 L 17.61 1.99 L 17.61 4.93 L 15.25 4.93 L 15.25 1.99 L 14.07 1.99 L 14.07 4.93 L 11.71 4.93 L 11.71 1.99 L 10.53 1.99 L 10.53 4.93 L 8.18 4.93 L 8.18 1.99 L 7.00 1.99 L 7.00 4.93 L 5.23 4.93 C 4.91 4.93 4.64 5.20 4.64 5.52 L 4.64 7.29 L 1.69 7.29 L 1.69 8.47 L 4.64 8.47 L 4.64 10.83 L 1.69 10.83 L 1.69 12.01 L 4.64 12.01 L 4.64 14.36 L 1.69 14.36 L 1.69 15.54 L 4.64 15.54 L 4.64 17.90 L 1.69 17.90 L 1.69 19.08 L 4.64 19.08 L 4.64 21.44 L 1.69 21.44 L 1.69 22.62 L 4.64 22.62 L 4.64 24.38 C 4.64 24.71 4.91 24.97 5.23 24.97 L 7.00 24.97 L 7.00 27.92 L 8.18 27.92 L 8.18 24.97 L 10.53 24.97 L 10.53 27.92 L 11.71 27.92 L 11.71 24.97 L 14.07 24.97 L 14.07 27.92 L 15.25 27.92 L 15.25 24.97 L 17.61 24.97 L 17.61 27.92 L 18.79 27.92 L 18.79 24.97 L 21.14 24.97 L 21.14 27.92 L 22.32 27.92 L 22.32 24.97 L 24.09 24.97 C 24.42 24.97 24.68 24.71 24.68 24.38 L 24.68 22.62 L 27.63 22.62 L 27.63 21.44 L 24.68 21.44 L 24.68 19.08 L 27.63 19.08 L 27.63 17.90 L 24.68 17.90 L 24.68 15.54 L 27.63 15.54 L 27.63 14.36 L 24.68 14.36 L 24.68 12.01 L 27.63 12.01 L 27.63 10.83 L 24.68 10.83 L 24.68 8.47 Z M 27.63 8.47 "/>
</g>
<clipPath id="stockage-types-clip-4">
<path clip-rule="nonzero" d="M 0.83 0.44 L 26.30 0.44 L 26.30 25.90 L 0.83 25.90 Z M 0.83 0.44 "/>
</clipPath>
<clipPath id="stockage-types-clip-5">
<rect x="0" y="0" width="27" height="26"/>
</clipPath>
<g id="stockage-types-source-17" clip-path="url(#stockage-types-clip-5)">
<g clip-path="url(#stockage-types-clip-4)">
<path fill-rule="evenodd" style="fill:var(--fig-ic-storage)" fill-opacity="1" d="M 0.83 0.44 L 26.30 0.44 L 26.30 25.90 L 0.83 25.90 Z M 0.83 0.44 "/>
</g>
<path fill-rule="evenodd" style="fill:var(--fig-paper)" fill-opacity="1" d="M 21.86 4.41 L 19.08 4.41 L 19.08 5.21 L 20.86 5.21 L 18.76 7.32 L 19.32 7.88 L 21.47 5.73 L 21.47 7.60 L 22.26 7.60 L 22.26 4.81 C 22.26 4.59 22.08 4.41 21.86 4.41 Z M 5.55 5.73 L 7.70 7.88 L 8.26 7.32 L 6.16 5.21 L 7.93 5.21 L 7.93 4.41 L 5.15 4.41 C 4.93 4.41 4.76 4.59 4.76 4.81 L 4.76 7.60 L 5.55 7.60 Z M 21.47 20.61 L 19.32 18.46 L 18.76 19.02 L 20.86 21.12 L 19.08 21.12 L 19.08 21.92 L 21.86 21.92 C 22.08 21.92 22.26 21.74 22.26 21.52 L 22.26 18.74 L 21.47 18.74 Z M 9.13 10.96 C 9.13 9.79 9.94 8.53 10.98 8.09 C 12.79 7.33 14.08 8.33 14.54 8.80 C 14.92 9.17 15.22 9.66 15.43 10.24 C 15.48 10.38 15.60 10.48 15.74 10.50 C 15.89 10.52 16.03 10.46 16.12 10.35 C 16.33 10.06 16.65 9.89 16.98 9.89 C 17.48 9.89 18.09 10.28 18.15 11.38 C 18.16 11.56 18.29 11.71 18.47 11.75 C 19.76 12.02 20.42 12.74 20.42 13.88 C 20.42 14.16 20.39 14.42 20.32 14.64 L 21.08 14.87 C 21.17 14.57 21.21 14.24 21.21 13.88 C 21.21 12.44 20.40 11.44 18.91 11.03 C 18.72 9.71 17.80 9.10 16.98 9.10 C 16.61 9.10 16.25 9.21 15.94 9.42 C 15.72 8.97 15.44 8.57 15.10 8.23 C 13.89 7.03 12.24 6.71 10.68 7.36 C 9.34 7.92 8.33 9.47 8.33 10.96 C 8.33 11.01 8.33 11.06 8.33 11.12 C 7.14 11.54 6.44 12.54 6.44 13.86 C 6.44 13.93 6.44 14 6.45 14.06 C 6.51 15.22 7.28 16.23 8.42 16.62 L 8.67 15.87 C 7.85 15.58 7.28 14.85 7.24 14.01 C 7.24 13.97 7.23 13.91 7.23 13.86 C 7.23 12.41 8.25 11.94 8.85 11.79 C 9.05 11.74 9.18 11.56 9.15 11.36 C 9.14 11.23 9.13 11.10 9.13 10.96 Z M 17.08 14.20 C 17.08 14.08 17.05 14.01 17.03 13.98 C 17.01 13.97 16.96 13.96 16.89 13.96 L 12.90 13.96 C 12.68 13.96 12.50 13.78 12.50 13.57 C 12.50 13.5 12.48 13.31 12.45 13.17 L 11.54 13.17 C 11.50 13.30 11.46 13.50 11.46 13.57 C 11.46 13.78 11.28 13.96 11.07 13.96 L 10.15 13.96 C 10.06 13.96 10.01 13.97 9.99 13.98 C 9.96 14.01 9.94 14.08 9.94 14.20 L 9.94 18.34 L 17.08 18.34 Z M 17.87 15.16 L 17.87 17.05 L 18.82 15.16 Z M 17.83 18.91 L 17.83 18.91 C 17.76 19.04 17.63 19.14 17.48 19.14 L 9.54 19.14 C 9.32 19.14 9.14 18.96 9.14 18.74 L 9.14 14.20 C 9.14 13.78 9.31 13.53 9.45 13.40 C 9.58 13.28 9.81 13.14 10.18 13.17 L 10.71 13.17 C 10.78 12.82 10.94 12.37 11.31 12.37 L 12.70 12.37 C 12.73 12.37 12.75 12.37 12.78 12.38 C 13.10 12.44 13.22 12.84 13.26 13.17 L 16.87 13.17 C 17.21 13.14 17.44 13.28 17.57 13.40 C 17.71 13.53 17.87 13.78 17.87 14.20 L 17.87 14.36 L 19.46 14.36 C 19.60 14.36 19.73 14.43 19.80 14.55 C 19.87 14.67 19.88 14.81 19.82 14.94 Z M 8.26 19.02 L 6.16 21.12 L 7.93 21.12 L 7.93 21.92 L 5.15 21.92 C 4.93 21.92 4.76 21.74 4.76 21.52 L 4.76 18.74 L 5.55 18.74 L 5.55 20.61 L 7.70 18.46 Z M 8.26 19.02 "/>
</g>
<clipPath id="stockage-types-clip-6">
<rect x="0" y="0" width="24" height="24"/>
</clipPath>
<g id="stockage-types-source-20" clip-path="url(#stockage-types-clip-6)">
<path fill-rule="evenodd" style="fill:var(--fig-ic-compute)" fill-opacity="1" d="M 4.75 19.05 L 18.90 19.05 L 18.90 4.91 L 4.75 4.91 Z M 22.20 6.79 L 22.20 5.85 L 19.84 5.85 L 19.84 4.43 C 19.84 4.17 19.63 3.96 19.37 3.96 L 17.96 3.96 L 17.96 1.60 L 17.01 1.60 L 17.01 3.96 L 15.12 3.96 L 15.12 1.60 L 14.18 1.60 L 14.18 3.96 L 12.30 3.96 L 12.30 1.60 L 11.35 1.60 L 11.35 3.96 L 9.47 3.96 L 9.47 1.60 L 8.52 1.60 L 8.52 3.96 L 6.64 3.96 L 6.64 1.60 L 5.69 1.60 L 5.69 3.96 L 4.28 3.96 C 4.02 3.96 3.81 4.17 3.81 4.43 L 3.81 5.85 L 1.45 5.85 L 1.45 6.79 L 3.81 6.79 L 3.81 8.68 L 1.45 8.68 L 1.45 9.62 L 3.81 9.62 L 3.81 11.51 L 1.45 11.51 L 1.45 12.45 L 3.81 12.45 L 3.81 14.33 L 1.45 14.33 L 1.45 15.28 L 3.81 15.28 L 3.81 17.16 L 1.45 17.16 L 1.45 18.11 L 3.81 18.11 L 3.81 19.52 C 3.81 19.78 4.02 19.99 4.28 19.99 L 5.69 19.99 L 5.69 22.35 L 6.64 22.35 L 6.64 19.99 L 8.52 19.99 L 8.52 22.35 L 9.47 22.35 L 9.47 19.99 L 11.35 19.99 L 11.35 22.35 L 12.30 22.35 L 12.30 19.99 L 14.18 19.99 L 14.18 22.35 L 15.12 22.35 L 15.12 19.99 L 17.01 19.99 L 17.01 22.35 L 17.96 22.35 L 17.96 19.99 L 19.37 19.99 C 19.63 19.99 19.84 19.78 19.84 19.52 L 19.84 18.11 L 22.20 18.11 L 22.20 17.16 L 19.84 17.16 L 19.84 15.28 L 22.20 15.28 L 22.20 14.33 L 19.84 14.33 L 19.84 12.45 L 22.20 12.45 L 22.20 11.51 L 19.84 11.51 L 19.84 9.62 L 22.20 9.62 L 22.20 8.68 L 19.84 8.68 L 19.84 6.79 Z M 22.20 6.79 "/>
</g>
<clipPath id="stockage-types-clip-7">
<rect x="0" y="0" width="24" height="24"/>
</clipPath>
<g id="stockage-types-source-23" clip-path="url(#stockage-types-clip-7)">
<path fill-rule="evenodd" style="fill:var(--fig-ink)" fill-opacity="1" d="M 20.45 19.21 L 20.45 20.12 C 20.45 20.32 20.28 20.49 20.08 20.49 L 15.01 20.49 C 14.81 20.49 14.64 20.32 14.64 20.12 L 14.64 19.21 C 14.64 19.00 14.81 18.83 15.01 18.83 L 20.08 18.83 C 20.28 18.83 20.45 19.00 20.45 19.21 Z M 21.16 20.92 C 21.16 21.08 21.02 21.22 20.85 21.22 L 2.70 21.22 C 2.53 21.22 2.39 21.08 2.39 20.92 L 2.39 18.38 C 2.39 18.21 2.53 18.07 2.70 18.07 L 20.85 18.07 C 21.02 18.07 21.16 18.21 21.16 18.38 Z M 20.85 17.13 L 2.70 17.13 C 2.01 17.13 1.45 17.69 1.45 18.38 L 1.45 20.92 C 1.45 21.61 2.01 22.16 2.70 22.16 L 20.85 22.16 C 21.54 22.16 22.10 21.61 22.10 20.92 L 22.10 18.38 C 22.10 17.69 21.54 17.13 20.85 17.13 Z M 4.05 13.76 L 19.5 13.76 L 19.5 4.46 L 4.05 4.46 Z M 19.77 3.52 L 3.77 3.52 C 3.41 3.52 3.10 3.82 3.10 4.19 L 3.10 14.03 C 3.10 14.40 3.41 14.70 3.77 14.70 L 19.77 14.70 C 20.14 14.70 20.44 14.40 20.44 14.03 L 20.44 4.19 C 20.44 3.82 20.14 3.52 19.77 3.52 Z M 21.16 15.10 C 21.16 15.27 21.02 15.41 20.85 15.41 L 2.70 15.41 C 2.53 15.41 2.39 15.27 2.39 15.10 L 2.39 3.12 C 2.39 2.95 2.53 2.81 2.70 2.81 L 20.85 2.81 C 21.02 2.81 21.16 2.95 21.16 3.12 Z M 20.85 1.87 L 2.70 1.87 C 2.01 1.87 1.45 2.43 1.45 3.12 L 1.45 15.10 C 1.45 15.79 2.01 16.35 2.70 16.35 L 20.85 16.35 C 21.54 16.35 22.10 15.79 22.10 15.10 L 22.10 3.12 C 22.10 2.43 21.54 1.87 20.85 1.87 Z M 20.85 1.87 "/>
</g>
<clipPath id="stockage-types-clip-8">
<path clip-rule="nonzero" d="M 0.51 0.19 L 23.14 0.19 L 23.14 22.82 L 0.51 22.82 Z M 0.51 0.19 "/>
</clipPath>
<clipPath id="stockage-types-clip-9">
<rect x="0" y="0" width="24" height="23"/>
</clipPath>
<g id="stockage-types-source-26" clip-path="url(#stockage-types-clip-9)">
<g clip-path="url(#stockage-types-clip-8)">
<path fill-rule="evenodd" style="fill:var(--fig-ic-compute)" fill-opacity="1" d="M 0.51 0.19 L 23.14 0.19 L 23.14 22.82 L 0.51 22.82 Z M 0.51 0.19 "/>
</g>
<path fill-rule="evenodd" style="fill:var(--fig-paper)" fill-opacity="1" d="M 8.53 18.58 L 5.31 18.58 L 8.94 10.95 L 10.55 14.29 Z M 9.25 9.98 C 9.19 9.85 9.07 9.78 8.94 9.78 C 8.80 9.78 8.68 9.85 8.62 9.98 L 4.43 18.78 C 4.38 18.89 4.39 19.02 4.45 19.12 C 4.51 19.23 4.63 19.29 4.75 19.29 L 8.75 19.29 C 8.89 19.29 9.01 19.21 9.07 19.08 L 11.26 14.44 C 11.30 14.34 11.30 14.23 11.26 14.13 Z M 18.55 18.58 L 15.35 18.58 L 10.04 7.12 C 9.98 6.99 9.86 6.91 9.72 6.91 L 7.63 6.91 L 7.63 4.44 L 11.76 4.44 L 17.05 15.90 C 17.11 16.03 17.23 16.10 17.37 16.10 L 18.55 16.10 Z M 18.90 15.40 L 17.59 15.40 L 12.30 3.93 C 12.25 3.81 12.12 3.73 11.98 3.73 L 7.28 3.73 C 7.08 3.73 6.92 3.89 6.92 4.08 L 6.92 7.26 C 6.92 7.36 6.96 7.45 7.03 7.51 C 7.09 7.58 7.18 7.62 7.27 7.62 L 9.5 7.62 L 14.81 19.08 C 14.87 19.21 15 19.29 15.13 19.29 L 18.90 19.29 C 19.09 19.29 19.25 19.13 19.25 18.94 L 19.25 15.75 C 19.25 15.56 19.09 15.40 18.90 15.40 Z M 18.90 15.40 "/>
</g>
<clipPath id="stockage-types-clip-10">
<rect x="0" y="0" width="29" height="29"/>
</clipPath>
<g id="stockage-types-source-29" clip-path="url(#stockage-types-clip-10)">
<path fill-rule="evenodd" style="fill:var(--fig-ic-storage)" fill-opacity="1" d="M 23.94 15.46 L 24.08 14.49 C 25.11 15.12 25.44 15.49 25.53 15.64 C 25.25 15.72 24.69 15.65 23.94 15.46 Z M 13.55 11.91 C 13.55 11.88 13.58 11.85 13.61 11.85 C 13.62 11.85 13.62 11.86 13.63 11.86 L 13.59 11.95 C 13.57 11.94 13.55 11.93 13.55 11.91 Z M 21.60 24.05 C 21.59 24.08 21.59 24.10 21.59 24.13 C 21.59 24.22 21.37 24.56 20.38 24.95 C 19.94 25.12 19.42 25.28 18.83 25.42 C 17.32 25.77 15.46 25.96 13.61 25.96 C 8.64 25.96 5.62 24.69 5.62 24.13 C 5.62 24.10 5.62 24.08 5.62 24.05 L 3.36 7.32 C 3.51 7.41 3.66 7.48 3.83 7.56 C 3.87 7.58 3.91 7.60 3.96 7.62 C 4.10 7.69 4.25 7.75 4.41 7.82 C 4.48 7.84 4.54 7.87 4.61 7.89 C 4.77 7.95 4.94 8.01 5.12 8.07 C 5.17 8.09 5.21 8.10 5.26 8.12 C 5.48 8.19 5.72 8.26 5.96 8.32 C 6.02 8.33 6.08 8.35 6.14 8.37 C 6.33 8.42 6.53 8.46 6.73 8.51 C 6.80 8.52 6.88 8.54 6.96 8.56 C 7.18 8.60 7.40 8.65 7.63 8.69 C 7.67 8.69 7.72 8.71 7.76 8.71 C 8.03 8.76 8.31 8.80 8.59 8.85 C 8.66 8.85 8.74 8.87 8.82 8.88 C 9.03 8.91 9.25 8.93 9.47 8.96 C 9.56 8.97 9.64 8.98 9.73 8.99 C 10 9.02 10.26 9.04 10.52 9.07 C 10.55 9.07 10.58 9.07 10.62 9.07 C 10.91 9.10 11.21 9.12 11.51 9.14 C 11.59 9.14 11.67 9.14 11.76 9.15 C 11.99 9.16 12.21 9.17 12.44 9.17 C 12.53 9.18 12.62 9.18 12.71 9.18 C 13.01 9.19 13.31 9.19 13.61 9.19 C 13.91 9.19 14.21 9.19 14.51 9.18 C 14.60 9.18 14.69 9.18 14.77 9.17 C 15.00 9.17 15.23 9.16 15.45 9.15 C 15.53 9.14 15.62 9.14 15.70 9.14 C 16.00 9.12 16.30 9.10 16.60 9.07 C 16.63 9.07 16.66 9.07 16.69 9.07 C 16.95 9.04 17.22 9.02 17.48 8.99 C 17.57 8.98 17.66 8.97 17.74 8.96 C 17.96 8.93 18.18 8.91 18.40 8.88 C 18.47 8.87 18.55 8.85 18.62 8.85 C 18.90 8.80 19.18 8.76 19.46 8.71 C 19.5 8.71 19.53 8.69 19.58 8.69 C 19.81 8.65 20.03 8.60 20.26 8.56 C 20.33 8.54 20.41 8.52 20.49 8.51 C 20.69 8.46 20.88 8.42 21.07 8.37 C 21.14 8.35 21.19 8.33 21.25 8.32 C 21.5 8.26 21.73 8.19 21.96 8.12 C 22.00 8.10 22.05 8.09 22.09 8.07 C 22.27 8.01 22.44 7.95 22.61 7.89 C 22.67 7.87 22.74 7.84 22.80 7.82 C 22.96 7.75 23.12 7.69 23.26 7.62 C 23.30 7.60 23.35 7.58 23.39 7.56 C 23.55 7.49 23.70 7.41 23.85 7.32 L 22.80 15.12 C 20.66 14.44 17.67 13.19 14.83 11.85 C 14.80 11.19 14.26 10.67 13.61 10.67 C 12.93 10.67 12.38 11.23 12.38 11.91 C 12.38 12.59 12.93 13.14 13.61 13.14 C 13.87 13.14 14.12 13.05 14.32 12.91 C 16.86 14.13 20.10 15.57 22.64 16.30 Z M 13.61 2.46 C 19.72 2.46 24.03 4.35 24.10 5.40 L 24.09 5.52 C 24.08 5.55 24.06 5.60 24.04 5.63 C 24.02 5.66 24.01 5.69 23.99 5.72 C 23.96 5.76 23.92 5.80 23.89 5.83 C 23.86 5.87 23.83 5.90 23.80 5.93 C 23.76 5.97 23.71 6.01 23.66 6.04 C 23.62 6.08 23.58 6.11 23.53 6.14 C 23.48 6.18 23.41 6.21 23.34 6.26 C 23.29 6.28 23.24 6.32 23.17 6.35 C 23.11 6.39 23.03 6.43 22.95 6.46 C 22.89 6.50 22.82 6.53 22.75 6.56 C 22.66 6.60 22.57 6.64 22.48 6.67 C 22.40 6.70 22.33 6.74 22.24 6.77 C 22.14 6.80 22.04 6.84 21.94 6.87 C 21.84 6.91 21.76 6.94 21.66 6.97 C 21.55 7.00 21.44 7.03 21.32 7.07 C 21.22 7.10 21.12 7.13 21.01 7.16 C 20.89 7.19 20.76 7.22 20.64 7.25 C 20.53 7.28 20.41 7.31 20.29 7.34 C 20.16 7.37 20.03 7.39 19.89 7.42 C 19.76 7.45 19.64 7.48 19.51 7.50 C 19.37 7.53 19.22 7.55 19.07 7.58 C 18.93 7.60 18.80 7.63 18.66 7.65 C 18.51 7.67 18.34 7.69 18.18 7.71 C 18.04 7.73 17.91 7.76 17.76 7.77 C 17.59 7.79 17.41 7.81 17.24 7.83 C 17.09 7.84 16.95 7.86 16.80 7.87 C 16.61 7.89 16.41 7.91 16.21 7.92 C 16.07 7.93 15.93 7.94 15.79 7.95 C 15.56 7.96 15.33 7.98 15.10 7.98 C 14.97 7.99 14.85 8 14.72 8.00 C 14.35 8.01 13.98 8.01 13.61 8.01 C 13.23 8.01 12.85 8.01 12.49 8.00 C 12.37 8 12.25 7.99 12.13 7.98 C 11.89 7.98 11.66 7.96 11.43 7.95 C 11.29 7.94 11.16 7.93 11.02 7.92 C 10.82 7.91 10.61 7.89 10.41 7.87 C 10.27 7.86 10.14 7.85 10.00 7.83 C 9.82 7.81 9.63 7.79 9.45 7.77 C 9.32 7.76 9.19 7.73 9.06 7.72 C 8.89 7.69 8.71 7.67 8.55 7.65 C 8.42 7.63 8.30 7.60 8.17 7.58 C 8.01 7.56 7.85 7.53 7.71 7.50 C 7.58 7.48 7.46 7.45 7.34 7.43 C 7.20 7.40 7.06 7.37 6.92 7.34 C 6.80 7.31 6.70 7.28 6.59 7.26 C 6.46 7.23 6.33 7.19 6.20 7.16 C 6.10 7.13 6.00 7.10 5.90 7.07 C 5.78 7.04 5.66 7.00 5.55 6.97 C 5.46 6.94 5.37 6.91 5.28 6.88 C 5.18 6.84 5.07 6.81 4.98 6.77 C 4.89 6.74 4.82 6.71 4.74 6.67 C 4.65 6.64 4.55 6.60 4.47 6.56 C 4.39 6.53 4.33 6.50 4.26 6.47 C 4.19 6.43 4.10 6.39 4.04 6.35 C 3.98 6.32 3.93 6.29 3.87 6.26 C 3.81 6.22 3.74 6.18 3.68 6.14 C 3.64 6.11 3.60 6.08 3.56 6.04 C 3.51 6.01 3.45 5.97 3.41 5.93 C 3.38 5.90 3.35 5.87 3.32 5.83 C 3.29 5.80 3.25 5.76 3.23 5.72 C 3.20 5.69 3.19 5.66 3.17 5.63 C 3.16 5.60 3.13 5.55 3.12 5.52 L 3.10 5.40 C 3.19 4.35 7.5 2.46 13.61 2.46 Z M 26.73 15.51 C 26.60 14.84 25.83 14.13 24.25 13.22 L 25.25 5.74 L 25.25 5.73 L 25.28 5.51 C 25.28 5.48 25.29 5.45 25.29 5.43 C 25.29 2.98 19.13 1.28 13.61 1.28 C 8.08 1.28 1.93 2.98 1.93 5.43 C 1.93 5.45 1.93 5.48 1.93 5.51 L 1.96 5.73 L 1.96 5.74 L 4.44 24.17 C 4.52 26.33 10.09 27.14 13.61 27.14 C 15.55 27.14 17.50 26.94 19.10 26.57 C 19.74 26.42 20.32 26.25 20.82 26.05 C 22.08 25.55 22.74 24.91 22.77 24.17 L 23.79 16.59 C 24.35 16.71 24.85 16.78 25.28 16.78 C 25.85 16.78 26.27 16.66 26.50 16.38 C 26.71 16.14 26.79 15.83 26.73 15.51 Z M 7.62 15.67 L 9.15 13.12 L 10.67 15.67 Z M 12.23 16.55 C 12.33 16.37 12.33 16.14 12.22 15.96 L 9.66 11.67 C 9.44 11.32 8.85 11.32 8.64 11.67 L 6.07 15.96 C 5.96 16.14 5.96 16.37 6.06 16.55 C 6.17 16.74 6.36 16.85 6.57 16.85 L 11.72 16.85 C 11.93 16.85 12.13 16.74 12.23 16.55 Z M 17.63 17.37 C 18.58 17.37 19.36 18.15 19.36 19.10 C 19.36 20.07 18.58 20.85 17.63 20.85 C 16.68 20.85 15.91 20.07 15.91 19.10 C 15.91 18.15 16.68 17.37 17.63 17.37 Z M 17.63 22.03 C 19.23 22.03 20.53 20.72 20.53 19.10 C 20.53 17.50 19.23 16.19 17.63 16.19 C 16.03 16.19 14.73 17.50 14.73 19.10 C 14.73 20.72 16.03 22.03 17.63 22.03 Z M 8.76 22.87 L 11.65 22.87 L 11.65 19.94 L 8.76 19.94 Z M 12.24 18.76 L 8.17 18.76 C 7.85 18.76 7.58 19.03 7.58 19.35 L 7.58 23.46 C 7.58 23.79 7.85 24.05 8.17 24.05 L 12.24 24.05 C 12.57 24.05 12.83 23.79 12.83 23.46 L 12.83 19.35 C 12.83 19.03 12.57 18.76 12.24 18.76 Z M 12.24 18.76 "/>
</g>
</defs>
<path fill="none" stroke-width="0.79" stroke-linecap="round" stroke-linejoin="round" style="stroke:var(--fig-console-field)" stroke-opacity="1" stroke-miterlimit="10" d="M 0.00 -2.98 L 0.00 -223.78 C 0.00 -225.43 1.33 -226.77 2.98 -226.77 L 206.77 -226.77 C 208.42 -226.77 209.76 -225.43 209.76 -223.78 L 209.76 -2.98 C 209.76 -1.33 208.42 0.00 206.77 0.00 L 2.98 0.00 C 1.33 0.00 0.00 -1.33 0.00 -2.98 Z M 0.00 -2.98 " transform="matrix(0.998042, 0, 0, -0.998042, 4.569659, 4.375418)"/>
<g style="fill:var(--fig-ink)" fill-opacity="1">
<use xlink:href="#stockage-types-glyph-0-0" x="9.01" y="17.06"/>
<use xlink:href="#stockage-types-glyph-0-1" x="15.89" y="17.06"/>
</g>
<g style="fill:var(--fig-ink)" fill-opacity="1">
<use xlink:href="#stockage-types-glyph-0-2" x="25.63" y="17.06"/>
<use xlink:href="#stockage-types-glyph-0-3" x="32.78" y="17.06"/>
<use xlink:href="#stockage-types-glyph-0-4" x="35.85" y="17.06"/>
<use xlink:href="#stockage-types-glyph-0-5" x="42.80" y="17.06"/>
</g>
<g style="fill:var(--fig-muted)" fill-opacity="1">
<use xlink:href="#stockage-types-glyph-1-0" x="153.62" y="19.64"/>
<use xlink:href="#stockage-types-glyph-1-1" x="159.48" y="19.64"/>
<use xlink:href="#stockage-types-glyph-1-2" x="166.93" y="19.64"/>
<use xlink:href="#stockage-types-glyph-1-3" x="171.70" y="19.64"/>
</g>
<g style="fill:var(--fig-muted)" fill-opacity="1">
<use xlink:href="#stockage-types-glyph-1-4" x="176.27" y="19.64"/>
<use xlink:href="#stockage-types-glyph-1-5" x="181.37" y="19.64"/>
</g>
<g style="fill:var(--fig-muted)" fill-opacity="1">
<use xlink:href="#stockage-types-glyph-1-6" x="188.78" y="19.64"/>
<use xlink:href="#stockage-types-glyph-1-7" x="193.89" y="19.64"/>
<use xlink:href="#stockage-types-glyph-1-8" x="199.46" y="19.64"/>
</g>
<path fill="none" stroke-width="0.79" stroke-linecap="round" stroke-linejoin="round" style="stroke:var(--fig-console-field)" stroke-opacity="1" stroke-miterlimit="10" d="M 226.77 -2.98 L 226.77 -223.78 C 226.77 -225.43 228.11 -226.77 229.76 -226.77 L 433.54 -226.77 C 435.20 -226.77 436.53 -225.43 436.53 -223.78 L 436.53 -2.98 C 436.53 -1.33 435.20 0.00 433.54 0.00 L 229.76 0.00 C 228.11 0.00 226.77 -1.33 226.77 -2.98 Z M 226.77 -2.98 " transform="matrix(0.998042, 0, 0, -0.998042, 4.569659, 4.375418)"/>
<g style="fill:var(--fig-ink)" fill-opacity="1">
<use xlink:href="#stockage-types-glyph-0-0" x="235.33" y="17.51"/>
<use xlink:href="#stockage-types-glyph-0-1" x="242.22" y="17.51"/>
</g>
<g style="fill:var(--fig-ink)" fill-opacity="1">
<use xlink:href="#stockage-types-glyph-0-6" x="251.96" y="17.51"/>
</g>
<g style="fill:var(--fig-ink)" fill-opacity="1">
<use xlink:href="#stockage-types-glyph-0-7" x="256.56" y="17.51"/>
<use xlink:href="#stockage-types-glyph-0-5" x="259.64" y="17.51"/>
<use xlink:href="#stockage-types-glyph-0-8" x="266.31" y="17.51"/>
<use xlink:href="#stockage-types-glyph-0-7" x="273.36" y="17.51"/>
<use xlink:href="#stockage-types-glyph-0-9" x="276.43" y="17.51"/>
<use xlink:href="#stockage-types-glyph-0-10" x="283.19" y="17.51"/>
<use xlink:href="#stockage-types-glyph-0-11" x="287.80" y="17.51"/>
</g>
<g style="fill:var(--fig-muted)" fill-opacity="1">
<use xlink:href="#stockage-types-glyph-1-0" x="380.49" y="19.64"/>
<use xlink:href="#stockage-types-glyph-1-1" x="386.35" y="19.64"/>
<use xlink:href="#stockage-types-glyph-1-2" x="393.80" y="19.64"/>
<use xlink:href="#stockage-types-glyph-1-3" x="398.57" y="19.64"/>
</g>
<g style="fill:var(--fig-muted)" fill-opacity="1">
<use xlink:href="#stockage-types-glyph-1-4" x="403.15" y="19.64"/>
<use xlink:href="#stockage-types-glyph-1-5" x="408.24" y="19.64"/>
</g>
<g style="fill:var(--fig-muted)" fill-opacity="1">
<use xlink:href="#stockage-types-glyph-1-6" x="415.65" y="19.64"/>
<use xlink:href="#stockage-types-glyph-1-9" x="420.76" y="19.64"/>
<use xlink:href="#stockage-types-glyph-1-8" x="425.78" y="19.64"/>
</g>
<path fill="none" stroke-width="0.79" stroke-linecap="round" stroke-linejoin="round" style="stroke:var(--fig-console-field)" stroke-opacity="1" stroke-miterlimit="10" d="M 453.54 -2.98 L 453.54 -223.78 C 453.54 -225.43 454.88 -226.77 456.53 -226.77 L 660.32 -226.77 C 661.97 -226.77 663.31 -225.43 663.31 -223.78 L 663.31 -2.98 C 663.31 -1.33 661.97 0.00 660.32 0.00 L 456.53 0.00 C 454.88 0.00 453.54 -1.33 453.54 -2.98 Z M 453.54 -2.98 " transform="matrix(0.998042, 0, 0, -0.998042, 4.569659, 4.375418)"/>
<g style="fill:var(--fig-ink)" fill-opacity="1">
<use xlink:href="#stockage-types-glyph-0-0" x="461.66" y="17.51"/>
<use xlink:href="#stockage-types-glyph-0-1" x="468.55" y="17.51"/>
</g>
<g style="fill:var(--fig-ink)" fill-opacity="1">
<use xlink:href="#stockage-types-glyph-0-4" x="478.28" y="17.51"/>
<use xlink:href="#stockage-types-glyph-0-2" x="485.23" y="17.51"/>
<use xlink:href="#stockage-types-glyph-0-12" x="492.38" y="17.51"/>
<use xlink:href="#stockage-types-glyph-0-9" x="495.45" y="17.51"/>
<use xlink:href="#stockage-types-glyph-0-13" x="502.20" y="17.51"/>
</g>
<g style="fill:var(--fig-ink)" fill-opacity="1">
<use xlink:href="#stockage-types-glyph-0-11" x="506.28" y="17.51"/>
</g>
<g style="fill:var(--fig-muted)" fill-opacity="1">
<use xlink:href="#stockage-types-glyph-1-0" x="611.69" y="19.64"/>
<use xlink:href="#stockage-types-glyph-1-1" x="617.56" y="19.64"/>
<use xlink:href="#stockage-types-glyph-1-2" x="625.00" y="19.64"/>
<use xlink:href="#stockage-types-glyph-1-3" x="629.78" y="19.64"/>
</g>
<g style="fill:var(--fig-muted)" fill-opacity="1">
<use xlink:href="#stockage-types-glyph-1-4" x="634.35" y="19.64"/>
<use xlink:href="#stockage-types-glyph-1-5" x="639.44" y="19.64"/>
</g>
<g style="fill:var(--fig-muted)" fill-opacity="1">
<use xlink:href="#stockage-types-glyph-1-8" x="646.86" y="19.64"/>
<use xlink:href="#stockage-types-glyph-1-10" x="652.31" y="19.64"/>
</g>
<use xlink:href="#stockage-types-source-5" transform="matrix(1, 0, 0, 1, 95, 46)"/>
<g style="fill:var(--fig-ink)" fill-opacity="1">
<use xlink:href="#stockage-types-glyph-2-0" x="84.97" y="84.36"/>
<use xlink:href="#stockage-types-glyph-2-1" x="89.72" y="84.36"/>
<use xlink:href="#stockage-types-glyph-2-2" x="94.46" y="84.36"/>
</g>
<g style="fill:var(--fig-ink)" fill-opacity="1">
<use xlink:href="#stockage-types-glyph-2-3" x="101.40" y="84.36"/>
<use xlink:href="#stockage-types-glyph-2-1" x="103.34" y="84.36"/>
<use xlink:href="#stockage-types-glyph-2-4" x="108.09" y="84.36"/>
<use xlink:href="#stockage-types-glyph-2-5" x="112.33" y="84.36"/>
</g>
<g style="fill:var(--fig-ink)" fill-opacity="1">
<use xlink:href="#stockage-types-glyph-2-6" x="114.99" y="84.36"/>
<use xlink:href="#stockage-types-glyph-2-1" x="119.50" y="84.36"/>
<use xlink:href="#stockage-types-glyph-2-7" x="124.24" y="84.36"/>
<use xlink:href="#stockage-types-glyph-2-2" x="128.83" y="84.36"/>
</g>
<use xlink:href="#stockage-types-source-8" transform="matrix(1, 0, 0, 1, 96, 121)"/>
<g style="fill:var(--fig-ink)" fill-opacity="1">
<use xlink:href="#stockage-types-glyph-2-0" x="89.58" y="156.31"/>
<use xlink:href="#stockage-types-glyph-2-1" x="94.32" y="156.31"/>
</g>
<g style="fill:var(--fig-ink)" fill-opacity="1">
<use xlink:href="#stockage-types-glyph-2-8" x="101.33" y="156.31"/>
</g>
<g style="fill:var(--fig-ink)" fill-opacity="1">
<use xlink:href="#stockage-types-glyph-2-9" x="105.69" y="156.31"/>
<use xlink:href="#stockage-types-glyph-2-10" x="110.50" y="156.31"/>
<use xlink:href="#stockage-types-glyph-2-0" x="112.44" y="156.31"/>
<use xlink:href="#stockage-types-glyph-2-11" x="117.19" y="156.31"/>
<use xlink:href="#stockage-types-glyph-2-2" x="124.23" y="156.31"/>
</g>
<path fill="none" stroke-width="0.99" stroke-linecap="round" stroke-linejoin="round" style="stroke:var(--fig-vert)" stroke-opacity="1" stroke-miterlimit="10" d="M 104.88 -83.27 L 104.88 -117.44 " transform="matrix(0.998042, 0, 0, -0.998042, 4.569659, 4.375418)"/>
<g style="fill:var(--fig-muted)" fill-opacity="1">
<use xlink:href="#stockage-types-glyph-1-11" x="16.40" y="189.59"/>
<use xlink:href="#stockage-types-glyph-1-12" x="21.18" y="189.59"/>
</g>
<g style="fill:var(--fig-muted)" fill-opacity="1">
<use xlink:href="#stockage-types-glyph-1-13" x="28.59" y="189.59"/>
<use xlink:href="#stockage-types-glyph-1-4" x="33.45" y="189.59"/>
<use xlink:href="#stockage-types-glyph-1-1" x="38.55" y="189.59"/>
<use xlink:href="#stockage-types-glyph-1-1" x="46.00" y="189.59"/>
<use xlink:href="#stockage-types-glyph-1-14" x="53.44" y="189.59"/>
</g>
<g style="fill:var(--fig-muted)" fill-opacity="1">
<use xlink:href="#stockage-types-glyph-1-12" x="60.79" y="189.59"/>
<use xlink:href="#stockage-types-glyph-1-5" x="65.82" y="189.59"/>
</g>
<g style="fill:var(--fig-muted)" fill-opacity="1">
<use xlink:href="#stockage-types-glyph-1-15" x="73.23" y="189.59"/>
<use xlink:href="#stockage-types-glyph-1-16" x="78.44" y="189.59"/>
<use xlink:href="#stockage-types-glyph-1-17" x="80.49" y="189.59"/>
<use xlink:href="#stockage-types-glyph-1-18" x="84.98" y="189.59"/>
<use xlink:href="#stockage-types-glyph-1-12" x="90.19" y="189.59"/>
<use xlink:href="#stockage-types-glyph-1-14" x="95.21" y="189.59"/>
</g>
<g style="fill:var(--fig-muted)" fill-opacity="1">
<use xlink:href="#stockage-types-glyph-1-19" x="102.56" y="189.59"/>
<use xlink:href="#stockage-types-glyph-1-4" x="104.62" y="189.59"/>
<use xlink:href="#stockage-types-glyph-1-13" x="109.72" y="189.59"/>
</g>
<g style="fill:var(--fig-muted)" fill-opacity="1">
<use xlink:href="#stockage-types-glyph-1-2" x="114.66" y="189.59"/>
<use xlink:href="#stockage-types-glyph-1-19" x="119.43" y="189.59"/>
</g>
<g style="fill:var(--fig-muted)" fill-opacity="1">
<use xlink:href="#stockage-types-glyph-1-20" x="123.88" y="189.59"/>
</g>
<g style="fill:var(--fig-muted)" fill-opacity="1">
<use xlink:href="#stockage-types-glyph-1-2" x="128.84" y="189.59"/>
<use xlink:href="#stockage-types-glyph-1-21" x="133.61" y="189.59"/>
<use xlink:href="#stockage-types-glyph-1-21" x="136.39" y="189.59"/>
</g>
<g style="fill:var(--fig-muted)" fill-opacity="1">
<use xlink:href="#stockage-types-glyph-1-2" x="139.21" y="189.59"/>
<use xlink:href="#stockage-types-glyph-1-13" x="143.99" y="189.59"/>
<use xlink:href="#stockage-types-glyph-1-22" x="148.85" y="189.59"/>
<use xlink:href="#stockage-types-glyph-1-23" x="153.87" y="189.59"/>
</g>
<g style="fill:var(--fig-muted)" fill-opacity="1">
<use xlink:href="#stockage-types-glyph-1-24" x="161.22" y="189.59"/>
</g>
<g style="fill:var(--fig-muted)" fill-opacity="1">
<use xlink:href="#stockage-types-glyph-1-12" x="168.38" y="189.59"/>
<use xlink:href="#stockage-types-glyph-1-5" x="173.41" y="189.59"/>
<use xlink:href="#stockage-types-glyph-1-14" x="178.43" y="189.59"/>
</g>
<g style="fill:var(--fig-muted)" fill-opacity="1">
<use xlink:href="#stockage-types-glyph-1-17" x="185.78" y="189.59"/>
<use xlink:href="#stockage-types-glyph-1-14" x="190.27" y="189.59"/>
<use xlink:href="#stockage-types-glyph-1-12" x="195.22" y="189.59"/>
<use xlink:href="#stockage-types-glyph-1-19" x="200.25" y="189.59"/>
<use xlink:href="#stockage-types-glyph-1-14" x="202.31" y="189.59"/>
</g>
<g style="fill:var(--fig-muted)" fill-opacity="1">
<use xlink:href="#stockage-types-glyph-1-16" x="16.40" y="200.53"/>
<use xlink:href="#stockage-types-glyph-1-5" x="18.46" y="200.53"/>
<use xlink:href="#stockage-types-glyph-1-17" x="23.48" y="200.53"/>
<use xlink:href="#stockage-types-glyph-1-21" x="27.97" y="200.53"/>
</g>
<g style="fill:var(--fig-muted)" fill-opacity="1">
<use xlink:href="#stockage-types-glyph-1-2" x="30.79" y="200.53"/>
<use xlink:href="#stockage-types-glyph-1-5" x="35.56" y="200.53"/>
<use xlink:href="#stockage-types-glyph-1-13" x="40.59" y="200.53"/>
<use xlink:href="#stockage-types-glyph-1-14" x="45.44" y="200.53"/>
<use xlink:href="#stockage-types-glyph-1-25" x="50.40" y="200.53"/>
</g>
<g style="fill:var(--fig-muted)" fill-opacity="1">
<use xlink:href="#stockage-types-glyph-1-15" x="55.24" y="200.53"/>
<use xlink:href="#stockage-types-glyph-1-2" x="60.44" y="200.53"/>
<use xlink:href="#stockage-types-glyph-1-5" x="65.22" y="200.53"/>
<use xlink:href="#stockage-types-glyph-1-17" x="70.24" y="200.53"/>
</g>
<g style="fill:var(--fig-muted)" fill-opacity="1">
<use xlink:href="#stockage-types-glyph-1-12" x="77.12" y="200.53"/>
<use xlink:href="#stockage-types-glyph-1-5" x="82.15" y="200.53"/>
<use xlink:href="#stockage-types-glyph-1-14" x="87.17" y="200.53"/>
</g>
<g style="fill:var(--fig-muted)" fill-opacity="1">
<use xlink:href="#stockage-types-glyph-1-17" x="94.52" y="200.53"/>
<use xlink:href="#stockage-types-glyph-1-14" x="99.00" y="200.53"/>
<use xlink:href="#stockage-types-glyph-1-12" x="103.96" y="200.53"/>
<use xlink:href="#stockage-types-glyph-1-19" x="108.99" y="200.53"/>
<use xlink:href="#stockage-types-glyph-1-14" x="111.04" y="200.53"/>
</g>
<g style="fill:var(--fig-muted)" fill-opacity="1">
<use xlink:href="#stockage-types-glyph-1-3" x="118.39" y="200.53"/>
</g>
<g style="fill:var(--fig-muted)" fill-opacity="1">
<use xlink:href="#stockage-types-glyph-1-4" x="122.97" y="200.53"/>
<use xlink:href="#stockage-types-glyph-1-5" x="128.06" y="200.53"/>
<use xlink:href="#stockage-types-glyph-1-14" x="133.09" y="200.53"/>
</g>
<use xlink:href="#stockage-types-source-11" transform="matrix(1, 0, 0, 1, 273, 46)"/>
<g style="fill:var(--fig-ink)" fill-opacity="1">
<use xlink:href="#stockage-types-glyph-2-3" x="268.65" y="84.36"/>
<use xlink:href="#stockage-types-glyph-2-1" x="270.60" y="84.36"/>
<use xlink:href="#stockage-types-glyph-2-4" x="275.34" y="84.36"/>
<use xlink:href="#stockage-types-glyph-2-5" x="279.58" y="84.36"/>
</g>
<g style="fill:var(--fig-ink)" fill-opacity="1">
<use xlink:href="#stockage-types-glyph-2-6" x="282.24" y="84.36"/>
<use xlink:href="#stockage-types-glyph-2-1" x="286.75" y="84.36"/>
<use xlink:href="#stockage-types-glyph-2-7" x="291.49" y="84.36"/>
<use xlink:href="#stockage-types-glyph-2-2" x="296.08" y="84.36"/>
</g>
<g style="fill:var(--fig-ink)" fill-opacity="1">
<use xlink:href="#stockage-types-glyph-2-12" x="303.02" y="84.36"/>
</g>
<use xlink:href="#stockage-types-source-14" transform="matrix(1, 0, 0, 1, 369, 46)"/>
<g style="fill:var(--fig-ink)" fill-opacity="1">
<use xlink:href="#stockage-types-glyph-2-3" x="364.03" y="84.36"/>
<use xlink:href="#stockage-types-glyph-2-1" x="365.97" y="84.36"/>
<use xlink:href="#stockage-types-glyph-2-4" x="370.72" y="84.36"/>
<use xlink:href="#stockage-types-glyph-2-5" x="374.95" y="84.36"/>
</g>
<g style="fill:var(--fig-ink)" fill-opacity="1">
<use xlink:href="#stockage-types-glyph-2-6" x="377.62" y="84.36"/>
<use xlink:href="#stockage-types-glyph-2-1" x="382.13" y="84.36"/>
<use xlink:href="#stockage-types-glyph-2-7" x="386.87" y="84.36"/>
<use xlink:href="#stockage-types-glyph-2-2" x="391.46" y="84.36"/>
</g>
<g style="fill:var(--fig-ink)" fill-opacity="1">
<use xlink:href="#stockage-types-glyph-2-13" x="398.40" y="84.36"/>
</g>
<use xlink:href="#stockage-types-source-17" transform="matrix(1, 0, 0, 1, 322, 127)"/>
<g style="fill:var(--fig-ink)" fill-opacity="1">
<use xlink:href="#stockage-types-glyph-2-4" x="298.48" y="162.24"/>
<use xlink:href="#stockage-types-glyph-2-14" x="302.71" y="162.24"/>
<use xlink:href="#stockage-types-glyph-2-4" x="307.23" y="162.24"/>
<use xlink:href="#stockage-types-glyph-2-5" x="311.46" y="162.24"/>
</g>
<g style="fill:var(--fig-ink)" fill-opacity="1">
<use xlink:href="#stockage-types-glyph-2-15" x="314.01" y="162.24"/>
<use xlink:href="#stockage-types-glyph-2-11" x="318.70" y="162.24"/>
<use xlink:href="#stockage-types-glyph-2-2" x="325.73" y="162.24"/>
</g>
<g style="fill:var(--fig-ink)" fill-opacity="1">
<use xlink:href="#stockage-types-glyph-2-16" x="332.66" y="162.24"/>
<use xlink:href="#stockage-types-glyph-2-2" x="337.58" y="162.24"/>
</g>
<g style="fill:var(--fig-ink)" fill-opacity="1">
<use xlink:href="#stockage-types-glyph-2-17" x="344.52" y="162.24"/>
<use xlink:href="#stockage-types-glyph-2-3" x="347.49" y="162.24"/>
<use xlink:href="#stockage-types-glyph-2-7" x="349.44" y="162.24"/>
<use xlink:href="#stockage-types-glyph-2-18" x="354.02" y="162.24"/>
<use xlink:href="#stockage-types-glyph-2-3" x="358.77" y="162.24"/>
<use xlink:href="#stockage-types-glyph-2-2" x="360.71" y="162.24"/>
<use xlink:href="#stockage-types-glyph-2-19" x="365.40" y="162.24"/>
<use xlink:href="#stockage-types-glyph-2-4" x="368.42" y="162.24"/>
</g>
<path fill="none" stroke-width="0.99" stroke-linecap="round" stroke-linejoin="round" style="stroke:var(--fig-vert)" stroke-opacity="1" stroke-miterlimit="10" d="M 283.46 -83.27 L 283.46 -102.04 L 379.84 -102.04 L 379.84 -83.27 " transform="matrix(0.998042, 0, 0, -0.998042, 4.569659, 4.375418)"/>
<path fill="none" stroke-width="0.99" stroke-linecap="round" stroke-linejoin="round" style="stroke:var(--fig-vert)" stroke-opacity="1" stroke-miterlimit="10" d="M 331.65 -102.04 L 331.65 -123.10 " transform="matrix(0.998042, 0, 0, -0.998042, 4.569659, 4.375418)"/>
<g style="fill:var(--fig-muted)" fill-opacity="1">
<use xlink:href="#stockage-types-glyph-1-1" x="242.73" y="190.07"/>
<use xlink:href="#stockage-types-glyph-1-4" x="250.17" y="190.07"/>
<use xlink:href="#stockage-types-glyph-1-5" x="255.27" y="190.07"/>
<use xlink:href="#stockage-types-glyph-1-21" x="260.29" y="190.07"/>
</g>
<g style="fill:var(--fig-muted)" fill-opacity="1">
<use xlink:href="#stockage-types-glyph-1-23" x="262.99" y="190.07"/>
</g>
<g style="fill:var(--fig-muted)" fill-opacity="1">
<use xlink:href="#stockage-types-glyph-1-13" x="270.33" y="190.07"/>
<use xlink:href="#stockage-types-glyph-1-4" x="275.19" y="190.07"/>
<use xlink:href="#stockage-types-glyph-1-1" x="280.29" y="190.07"/>
<use xlink:href="#stockage-types-glyph-1-1" x="287.73" y="190.07"/>
<use xlink:href="#stockage-types-glyph-1-14" x="295.18" y="190.07"/>
</g>
<g style="fill:var(--fig-muted)" fill-opacity="1">
<use xlink:href="#stockage-types-glyph-1-12" x="302.53" y="190.07"/>
<use xlink:href="#stockage-types-glyph-1-5" x="307.56" y="190.07"/>
</g>
<g style="fill:var(--fig-muted)" fill-opacity="1">
<use xlink:href="#stockage-types-glyph-1-15" x="314.97" y="190.07"/>
<use xlink:href="#stockage-types-glyph-1-4" x="320.18" y="190.07"/>
<use xlink:href="#stockage-types-glyph-1-17" x="325.27" y="190.07"/>
<use xlink:href="#stockage-types-glyph-1-17" x="329.76" y="190.07"/>
<use xlink:href="#stockage-types-glyph-1-16" x="334.25" y="190.07"/>
<use xlink:href="#stockage-types-glyph-1-14" x="336.31" y="190.07"/>
<use xlink:href="#stockage-types-glyph-1-26" x="341.26" y="190.07"/>
</g>
<g style="fill:var(--fig-muted)" fill-opacity="1">
<use xlink:href="#stockage-types-glyph-1-27" x="346.85" y="190.07"/>
</g>
<g style="fill:var(--fig-muted)" fill-opacity="1">
<use xlink:href="#stockage-types-glyph-1-2" x="352.14" y="190.07"/>
<use xlink:href="#stockage-types-glyph-1-26" x="356.92" y="190.07"/>
</g>
<g style="fill:var(--fig-muted)" fill-opacity="1">
<use xlink:href="#stockage-types-glyph-1-21" x="360.25" y="190.07"/>
</g>
<g style="fill:var(--fig-muted)" fill-opacity="1">
<use xlink:href="#stockage-types-glyph-1-2" x="363.07" y="190.07"/>
<use xlink:href="#stockage-types-glyph-1-28" x="367.85" y="190.07"/>
<use xlink:href="#stockage-types-glyph-1-23" x="373.06" y="190.07"/>
</g>
<g style="fill:var(--fig-muted)" fill-opacity="1">
<use xlink:href="#stockage-types-glyph-1-29" x="380.41" y="190.07"/>
<use xlink:href="#stockage-types-glyph-1-30" x="383.51" y="190.07"/>
<use xlink:href="#stockage-types-glyph-1-9" x="389.91" y="190.07"/>
<use xlink:href="#stockage-types-glyph-1-8" x="394.93" y="190.07"/>
<use xlink:href="#stockage-types-glyph-1-31" x="400.38" y="190.07"/>
</g>
<g style="fill:var(--fig-muted)" fill-opacity="1">
<use xlink:href="#stockage-types-glyph-1-27" x="405.88" y="190.07"/>
</g>
<g style="fill:var(--fig-muted)" fill-opacity="1">
<use xlink:href="#stockage-types-glyph-1-2" x="411.16" y="190.07"/>
<use xlink:href="#stockage-types-glyph-1-26" x="415.94" y="190.07"/>
</g>
<g style="fill:var(--fig-muted)" fill-opacity="1">
<use xlink:href="#stockage-types-glyph-1-27" x="242.73" y="201.01"/>
<use xlink:href="#stockage-types-glyph-1-19" x="247.93" y="201.01"/>
<use xlink:href="#stockage-types-glyph-1-12" x="249.99" y="201.01"/>
<use xlink:href="#stockage-types-glyph-1-17" x="255.02" y="201.01"/>
<use xlink:href="#stockage-types-glyph-1-16" x="259.50" y="201.01"/>
<use xlink:href="#stockage-types-glyph-1-14" x="261.56" y="201.01"/>
<use xlink:href="#stockage-types-glyph-1-12" x="266.52" y="201.01"/>
<use xlink:href="#stockage-types-glyph-1-26" x="271.55" y="201.01"/>
<use xlink:href="#stockage-types-glyph-1-17" x="274.75" y="201.01"/>
</g>
<g style="fill:var(--fig-muted)" fill-opacity="1">
<use xlink:href="#stockage-types-glyph-1-16" x="281.62" y="201.01"/>
<use xlink:href="#stockage-types-glyph-1-5" x="283.68" y="201.01"/>
<use xlink:href="#stockage-types-glyph-1-17" x="288.70" y="201.01"/>
<use xlink:href="#stockage-types-glyph-1-21" x="293.19" y="201.01"/>
</g>
<g style="fill:var(--fig-muted)" fill-opacity="1">
<use xlink:href="#stockage-types-glyph-1-2" x="296.01" y="201.01"/>
<use xlink:href="#stockage-types-glyph-1-5" x="300.78" y="201.01"/>
<use xlink:href="#stockage-types-glyph-1-13" x="305.81" y="201.01"/>
<use xlink:href="#stockage-types-glyph-1-14" x="310.66" y="201.01"/>
<use xlink:href="#stockage-types-glyph-1-17" x="315.62" y="201.01"/>
<use xlink:href="#stockage-types-glyph-1-25" x="320.11" y="201.01"/>
</g>
<g style="fill:var(--fig-muted)" fill-opacity="1">
<use xlink:href="#stockage-types-glyph-1-17" x="324.95" y="201.01"/>
<use xlink:href="#stockage-types-glyph-1-12" x="329.43" y="201.01"/>
<use xlink:href="#stockage-types-glyph-1-26" x="334.46" y="201.01"/>
</g>
<g style="fill:var(--fig-muted)" fill-opacity="1">
<use xlink:href="#stockage-types-glyph-1-27" x="340.05" y="201.01"/>
<use xlink:href="#stockage-types-glyph-1-19" x="345.26" y="201.01"/>
<use xlink:href="#stockage-types-glyph-1-12" x="347.32" y="201.01"/>
<use xlink:href="#stockage-types-glyph-1-17" x="352.34" y="201.01"/>
<use xlink:href="#stockage-types-glyph-1-16" x="356.83" y="201.01"/>
<use xlink:href="#stockage-types-glyph-1-14" x="358.89" y="201.01"/>
<use xlink:href="#stockage-types-glyph-1-12" x="363.85" y="201.01"/>
<use xlink:href="#stockage-types-glyph-1-26" x="368.87" y="201.01"/>
<use xlink:href="#stockage-types-glyph-1-17" x="372.07" y="201.01"/>
</g>
<g style="fill:var(--fig-muted)" fill-opacity="1">
<use xlink:href="#stockage-types-glyph-1-3" x="378.95" y="201.01"/>
</g>
<g style="fill:var(--fig-muted)" fill-opacity="1">
<use xlink:href="#stockage-types-glyph-1-4" x="383.53" y="201.01"/>
<use xlink:href="#stockage-types-glyph-1-5" x="388.62" y="201.01"/>
<use xlink:href="#stockage-types-glyph-1-14" x="393.65" y="201.01"/>
<use xlink:href="#stockage-types-glyph-1-17" x="398.60" y="201.01"/>
</g>
<use xlink:href="#stockage-types-source-20" transform="matrix(1, 0, 0, 1, 485, 32)"/>
<use xlink:href="#stockage-types-source-23" transform="matrix(1, 0, 0, 1, 485, 77)"/>
<use xlink:href="#stockage-types-source-26" transform="matrix(1, 0, 0, 1, 485, 123)"/>
<path fill="none" stroke-width="0.79" stroke-linecap="round" stroke-linejoin="round" style="stroke:var(--fig-vert)" stroke-opacity="1" stroke-miterlimit="10" d="M 544.25 -39.68 L 544.25 -130.39 " transform="matrix(0.998042, 0, 0, -0.998042, 4.569659, 4.375418)"/>
<path fill="none" stroke-width="0.79" stroke-linecap="round" stroke-linejoin="round" style="stroke:var(--fig-vert)" stroke-opacity="1" stroke-miterlimit="10" d="M 504.77 -39.68 L 544.25 -39.68 " transform="matrix(0.998042, 0, 0, -0.998042, 4.569659, 4.375418)"/>
<path fill="none" stroke-width="0.79" stroke-linecap="round" stroke-linejoin="round" style="stroke:var(--fig-vert)" stroke-opacity="1" stroke-miterlimit="10" d="M 504.77 -85.04 L 544.25 -85.04 " transform="matrix(0.998042, 0, 0, -0.998042, 4.569659, 4.375418)"/>
<path fill="none" stroke-width="0.79" stroke-linecap="round" stroke-linejoin="round" style="stroke:var(--fig-vert)" stroke-opacity="1" stroke-miterlimit="10" d="M 504.77 -130.39 L 544.25 -130.39 " transform="matrix(0.998042, 0, 0, -0.998042, 4.569659, 4.375418)"/>
<use xlink:href="#stockage-types-source-29" transform="matrix(1, 0, 0, 1, 607, 75)"/>
<g style="fill:var(--fig-ink)" fill-opacity="1">
<use xlink:href="#stockage-types-glyph-2-20" x="608.41" y="112.46"/>
<use xlink:href="#stockage-types-glyph-2-0" x="613.33" y="112.46"/>
<use xlink:href="#stockage-types-glyph-2-7" x="618.08" y="112.46"/>
<use xlink:href="#stockage-types-glyph-2-21" x="622.66" y="112.46"/>
</g>
<g style="fill:var(--fig-ink)" fill-opacity="1">
<use xlink:href="#stockage-types-glyph-2-2" x="626.89" y="112.46"/>
<use xlink:href="#stockage-types-glyph-2-5" x="631.57" y="112.46"/>
</g>
<path fill="none" stroke-width="0.79" stroke-linecap="round" stroke-linejoin="round" style="stroke:var(--fig-vert)" stroke-opacity="1" stroke-miterlimit="10" d="M 544.25 -85.04 L 599.51 -85.04 " transform="matrix(0.998042, 0, 0, -0.998042, 4.569659, 4.375418)"/>
<path fill-rule="nonzero" style="fill:var(--fig-vert);stroke:var(--fig-vert)" fill-opacity="1" stroke-width="0.79" stroke-linecap="round" stroke-linejoin="miter" stroke-opacity="1" stroke-miterlimit="10" d="M 5.36 -0.00 L 1.29 1.51 L 2.64 -0.00 L 1.29 -1.51 Z M 5.36 -0.00 " transform="matrix(0.998042, 0, 0, -0.998042, 600.465879, 89.248951)"/>
<path fill-rule="nonzero" style="fill:var(--fig-paper)" fill-opacity="1" d="M 561.98 88.85 L 592.75 88.85 L 592.75 79.89 L 561.98 79.89 Z M 561.98 88.85 "/>
<g style="fill:var(--fig-ink)" fill-opacity="1">
<use xlink:href="#stockage-types-glyph-1-32" x="563.26" y="87.44"/>
<use xlink:href="#stockage-types-glyph-1-33" x="569.58" y="87.44"/>
<use xlink:href="#stockage-types-glyph-1-33" x="575.07" y="87.44"/>
<use xlink:href="#stockage-types-glyph-1-34" x="580.56" y="87.44"/>
<use xlink:href="#stockage-types-glyph-1-8" x="585.99" y="87.44"/>
</g>
<g style="fill:var(--fig-muted)" fill-opacity="1">
<use xlink:href="#stockage-types-glyph-1-4" x="469.05" y="189.59"/>
<use xlink:href="#stockage-types-glyph-1-35" x="474.15" y="189.59"/>
<use xlink:href="#stockage-types-glyph-1-36" x="479.35" y="189.59"/>
<use xlink:href="#stockage-types-glyph-1-14" x="481.41" y="189.59"/>
<use xlink:href="#stockage-types-glyph-1-21" x="486.37" y="189.59"/>
</g>
<g style="fill:var(--fig-muted)" fill-opacity="1">
<use xlink:href="#stockage-types-glyph-1-17" x="489.07" y="189.59"/>
</g>
<g style="fill:var(--fig-muted)" fill-opacity="1">
<use xlink:href="#stockage-types-glyph-1-14" x="495.95" y="189.59"/>
<use xlink:href="#stockage-types-glyph-1-5" x="500.90" y="189.59"/>
<use xlink:href="#stockage-types-glyph-1-21" x="505.92" y="189.59"/>
<use xlink:href="#stockage-types-glyph-1-16" x="508.71" y="189.59"/>
<use xlink:href="#stockage-types-glyph-1-14" x="510.76" y="189.59"/>
<use xlink:href="#stockage-types-glyph-1-26" x="515.72" y="189.59"/>
<use xlink:href="#stockage-types-glyph-1-17" x="518.92" y="189.59"/>
<use xlink:href="#stockage-types-glyph-1-25" x="523.41" y="189.59"/>
</g>
<g style="fill:var(--fig-muted)" fill-opacity="1">
<use xlink:href="#stockage-types-glyph-1-19" x="528.25" y="189.59"/>
<use xlink:href="#stockage-types-glyph-1-12" x="530.31" y="189.59"/>
<use xlink:href="#stockage-types-glyph-1-17" x="535.33" y="189.59"/>
</g>
<g style="fill:var(--fig-muted)" fill-opacity="1">
<use xlink:href="#stockage-types-glyph-1-14" x="542.21" y="189.59"/>
<use xlink:href="#stockage-types-glyph-1-21" x="547.17" y="189.59"/>
</g>
<g style="fill:var(--fig-muted)" fill-opacity="1">
<use xlink:href="#stockage-types-glyph-1-23" x="552.34" y="189.59"/>
<use xlink:href="#stockage-types-glyph-1-13" x="557.30" y="189.59"/>
<use xlink:href="#stockage-types-glyph-1-26" x="562.15" y="189.59"/>
</g>
<g style="fill:var(--fig-muted)" fill-opacity="1">
<use xlink:href="#stockage-types-glyph-1-16" x="565.44" y="189.59"/>
<use xlink:href="#stockage-types-glyph-1-21" x="567.50" y="189.59"/>
</g>
<g style="fill:var(--fig-muted)" fill-opacity="1">
<use xlink:href="#stockage-types-glyph-1-17" x="570.19" y="189.59"/>
</g>
<g style="fill:var(--fig-muted)" fill-opacity="1">
<use xlink:href="#stockage-types-glyph-1-27" x="577.07" y="189.59"/>
</g>
<g style="fill:var(--fig-muted)" fill-opacity="1">
<use xlink:href="#stockage-types-glyph-1-2" x="582.36" y="189.59"/>
<use xlink:href="#stockage-types-glyph-1-26" x="587.13" y="189.59"/>
</g>
<g style="fill:var(--fig-muted)" fill-opacity="1">
<use xlink:href="#stockage-types-glyph-1-26" x="592.73" y="189.59"/>
</g>
<g style="fill:var(--fig-muted)" fill-opacity="1">
<use xlink:href="#stockage-types-glyph-1-14" x="595.79" y="189.59"/>
<use xlink:href="#stockage-types-glyph-1-18" x="600.74" y="189.59"/>
<use xlink:href="#stockage-types-glyph-1-12" x="605.95" y="189.59"/>
<use xlink:href="#stockage-types-glyph-1-37" x="610.97" y="189.59"/>
<use xlink:href="#stockage-types-glyph-1-21" x="615.93" y="189.59"/>
</g>
<g style="fill:var(--fig-muted)" fill-opacity="1">
<use xlink:href="#stockage-types-glyph-1-14" x="618.63" y="189.59"/>
<use xlink:href="#stockage-types-glyph-1-17" x="623.58" y="189.59"/>
</g>
<g style="fill:var(--fig-muted)" fill-opacity="1">
<use xlink:href="#stockage-types-glyph-1-32" x="630.46" y="189.59"/>
<use xlink:href="#stockage-types-glyph-1-33" x="636.78" y="189.59"/>
<use xlink:href="#stockage-types-glyph-1-33" x="642.27" y="189.59"/>
<use xlink:href="#stockage-types-glyph-1-34" x="647.76" y="189.59"/>
<use xlink:href="#stockage-types-glyph-1-8" x="653.19" y="189.59"/>
<use xlink:href="#stockage-types-glyph-1-25" x="658.64" y="189.59"/>
</g>
<g style="fill:var(--fig-muted)" fill-opacity="1">
<use xlink:href="#stockage-types-glyph-1-15" x="469.05" y="200.53"/>
<use xlink:href="#stockage-types-glyph-1-14" x="474.26" y="200.53"/>
<use xlink:href="#stockage-types-glyph-1-27" x="479.21" y="200.53"/>
<use xlink:href="#stockage-types-glyph-1-12" x="484.42" y="200.53"/>
<use xlink:href="#stockage-types-glyph-1-16" x="489.45" y="200.53"/>
<use xlink:href="#stockage-types-glyph-1-17" x="491.50" y="200.53"/>
</g>
<g style="fill:var(--fig-muted)" fill-opacity="1">
<use xlink:href="#stockage-types-glyph-1-5" x="498.38" y="200.53"/>
<use xlink:href="#stockage-types-glyph-1-38" x="503.41" y="200.53"/>
<use xlink:href="#stockage-types-glyph-1-16" x="505.62" y="200.53"/>
<use xlink:href="#stockage-types-glyph-1-1" x="507.68" y="200.53"/>
<use xlink:href="#stockage-types-glyph-1-27" x="515.13" y="200.53"/>
<use xlink:href="#stockage-types-glyph-1-4" x="520.33" y="200.53"/>
<use xlink:href="#stockage-types-glyph-1-26" x="525.43" y="200.53"/>
</g>
<g style="fill:var(--fig-muted)" fill-opacity="1">
<use xlink:href="#stockage-types-glyph-1-21" x="528.76" y="200.53"/>
</g>
<g style="fill:var(--fig-muted)" fill-opacity="1">
<use xlink:href="#stockage-types-glyph-1-14" x="531.46" y="200.53"/>
</g>
<g style="fill:var(--fig-muted)" fill-opacity="1">
<use xlink:href="#stockage-types-glyph-1-18" x="538.81" y="200.53"/>
<use xlink:href="#stockage-types-glyph-1-12" x="544.01" y="200.53"/>
<use xlink:href="#stockage-types-glyph-1-14" x="549.04" y="200.53"/>
<use xlink:href="#stockage-types-glyph-1-19" x="554.00" y="200.53"/>
</g>
<g style="fill:var(--fig-muted)" fill-opacity="1">
<use xlink:href="#stockage-types-glyph-1-27" x="558.45" y="200.53"/>
<use xlink:href="#stockage-types-glyph-1-26" x="563.65" y="200.53"/>
</g>
<g style="fill:var(--fig-muted)" fill-opacity="1">
<use xlink:href="#stockage-types-glyph-1-4" x="566.71" y="200.53"/>
<use xlink:href="#stockage-types-glyph-1-28" x="571.81" y="200.53"/>
<use xlink:href="#stockage-types-glyph-1-26" x="577.02" y="200.53"/>
<use xlink:href="#stockage-types-glyph-1-2" x="580.22" y="200.53"/>
<use xlink:href="#stockage-types-glyph-1-1" x="585.00" y="200.53"/>
<use xlink:href="#stockage-types-glyph-1-1" x="592.45" y="200.53"/>
<use xlink:href="#stockage-types-glyph-1-14" x="599.89" y="200.53"/>
</g>
<g style="fill:var(--fig-muted)" fill-opacity="1">
<use xlink:href="#stockage-types-glyph-1-2" x="607.24" y="200.53"/>
<use xlink:href="#stockage-types-glyph-1-12" x="612.01" y="200.53"/>
<use xlink:href="#stockage-types-glyph-1-21" x="617.04" y="200.53"/>
</g>
<g style="fill:var(--fig-muted)" fill-opacity="1">
<use xlink:href="#stockage-types-glyph-1-4" x="619.74" y="200.53"/>
<use xlink:href="#stockage-types-glyph-1-26" x="624.84" y="200.53"/>
</g>
<g style="fill:var(--fig-muted)" fill-opacity="1">
<use xlink:href="#stockage-types-glyph-1-16" x="628.12" y="200.53"/>
<use xlink:href="#stockage-types-glyph-1-17" x="630.18" y="200.53"/>
<use xlink:href="#stockage-types-glyph-1-23" x="634.67" y="200.53"/>
</g>
</svg>
